<?xml version="1.0" encoding="iso-8859-1"?>
<!-- Generator: Adobe Illustrator 16.0.0, SVG Export Plug-In . SVG Version: 6.00 Build 0)  -->
<!DOCTYPE svg PUBLIC "-//W3C//DTD SVG 1.1//EN" "http://www.w3.org/Graphics/SVG/1.1/DTD/svg11.dtd">
<svg version="1.1" xmlns="http://www.w3.org/2000/svg" xmlns:xlink="http://www.w3.org/1999/xlink" x="0px" y="0px" width="80px"
	 height="80px" viewBox="0 0 80 80" style="enable-background:new 0 0 80 80;" xml:space="preserve">
<g id="cookie">
	<circle id="innen" style="fill:#C69C6D;" cx="38.75" cy="34.875" r="33.875"/>
	<g id="rand">
		<g>
			<path style="fill:#C69C6D;" d="M35.125,1.5c3-0.5,5.5,0.75,8.5,1c3.625,0.375,6.75,1.625,9.875,3.375
				c3.125,1.625,6.375,2.875,9.25,5.25c2.75,2.25,3.875,6,5.625,9.125c1.625,2.75,3.5,4.875,3.75,8.125c0.125,2.25,0,4.375,0,6.5
				c0,2.75,0.625,5-0.25,7.625c-1.125,3.375-1.875,6.75-3.625,10c-3.125,6.125-9.375,10.625-15.875,13.125
				C46.875,67.625,42,70,36,69.375c-6.75-0.75-12.75-4-18.5-7.375c-3.375-2-4.75-5.25-7.875-7.5c-3.25-2.25-2.5-6.125-3-9.75
				c-0.75-5-2.5-10-1.125-15.125C7.25,23,9.75,17.375,14.125,12.25c1.875-2.25,3-3.5,5.375-5c2-1.25,4-2.875,6.125-3.75
				c1.75-0.875,3.875-0.75,5.875-1c2.625-0.5,5-1.25,7.625-0.875"/>
			<g>
				<path d="M35.125,3c8.249-0.529,15.907,3.171,23.004,6.869c4.27,2.224,6.22,5.599,8.232,9.767
					c2.093,4.334,4.329,6.88,4.311,12.036c-0.015,4.125,0.489,8.13-0.781,12.116c-1.457,4.573-2.92,8.787-6.078,12.494
					c-5.552,6.517-15.996,10.641-24.333,11.635C31.732,68.84,20.75,63.755,15.41,58.28c-2.562-2.626-6.53-5.76-6.973-9.445
					c-0.452-3.768-0.924-7.411-1.596-11.161c-1.654-9.23,3.628-18.799,9.396-25.603c5.415-6.389,14.673-9.481,22.888-8.946
					c1.933,0.126,1.92-2.875,0-3C20.372-1.098,3.371,15.927,3.514,34.713c0.039,5.072,1.475,10.386,2.08,15.428
					c0.477,3.976,3.467,5.519,5.946,8.255c6.487,7.162,16.518,12.026,26.229,12.58c8.688,0.496,19.549-5.028,26.029-10.465
					c3.463-2.905,5.693-6.769,7.367-10.899c2.324-5.734,2.412-10.318,2.479-16.332c0.055-4.977-0.445-8.222-3.147-12.456
					c-2.307-3.612-3.442-8.297-6.988-10.994C55.905,4.049,44.802-0.62,35.125,0C33.204,0.123,33.192,3.124,35.125,3L35.125,3z"/>
			</g>
		</g>
	</g>
	<g id="schatten" style="display:none;">
		<g style="display:inline;">
			<g>
				<path style="fill:#A67C52;" d="M62.288,18.016c2.771,5.047,6.161,9.695,6.616,15.671c0.437,5.725-1.688,11.46-4.422,16.373
					c-2.875,5.17-7.604,9.832-13.205,11.91c-1.559,0.578-3.241,0.619-4.784,1.296c-0.551,0.268-1.1,0.538-1.647,0.811
					c-0.553,0.273-2.79,0.615-1.922,1.138c-1.662-0.999-3.169,1.595-1.514,2.59c1.018,0.612,2.059,0.186,3.075-0.268
					c2.571-1.146,4.827-2.028,7.589-2.674c5.956-1.392,10.969-7.198,14.212-12.005c3.48-5.159,5.375-11.421,5.641-17.599
					c0.306-7.121-3.792-12.828-7.049-18.757C63.947,14.806,61.356,16.32,62.288,18.016L62.288,18.016z"/>
			</g>
		</g>
		<g style="display:inline;">
			<g>
				<path style="fill:#A67C52;" d="M60.622,18.6c1.923,4.36,4.043,8.435,4.296,13.279c0.271,5.201-1.302,10.091-3.958,14.496
					c-4.724,7.837-12.852,10.672-19.021,16.824c-1.371,1.367,0.75,3.488,2.121,2.121c3.503-3.493,8.251-5.593,12.022-8.787
					c3.802-3.22,6.747-7.079,9.065-11.479c5.066-9.614,2.117-18.779-1.937-27.969C62.433,15.319,59.849,16.847,60.622,18.6
					L60.622,18.6z"/>
			</g>
		</g>
		<g style="display:inline;">
			<g>
				<path style="fill:#A67C52;" d="M65.25,25.343c0.146,3.334,0.966,6.502,0.697,9.861c-0.412,5.17-2.722,9.617-5.883,13.63
					c-3.868,4.91-9.657,8.158-14.042,12.448c-1.385,1.354,0.738,3.475,2.121,2.121c2.557-2.501,5.624-4.568,8.238-7.123
					c2.82-2.756,5.636-4.926,7.966-8.203c2.321-3.267,3.654-6.897,4.344-10.818c0.733-4.167-0.262-7.793-0.441-11.916
					C68.166,23.416,65.166,23.408,65.25,25.343L65.25,25.343z"/>
			</g>
		</g>
		<g style="display:inline;">
			<g>
				<path style="fill:#A67C52;" d="M66.833,34.343c0.367,6.056-1.099,11.377-5.394,15.939c-4.004,4.253-9.763,6.883-14.363,10.433
					c0.605,0.785,1.212,1.57,1.817,2.355c0.083-0.083,0.167-0.167,0.25-0.25c1.369-1.369-0.752-3.49-2.121-2.121
					c-0.083,0.083-0.167,0.167-0.25,0.25c-1.172,1.171,0.439,3.419,1.817,2.355c5.155-3.978,12.153-6.945,16.163-12.223
					c1.904-2.506,3.229-5.259,4.423-8.16c1.246-3.025,0.851-5.388,0.657-8.579C69.717,32.421,66.716,32.41,66.833,34.343
					L66.833,34.343z"/>
			</g>
		</g>
		<g style="display:inline;">
			<g>
				<path style="fill:#A67C52;" d="M59.887,52.694c-1.427,4.437-6.7,6.836-10.785,8.119c-1.84,0.577-1.054,3.474,0.797,2.893
					c5.194-1.632,11.097-4.666,12.881-10.215C63.373,51.645,60.477,50.86,59.887,52.694L59.887,52.694z"/>
			</g>
		</g>
		<g style="display:inline;">
			<g>
				<path style="fill:#A67C52;" d="M42.884,63.619c-1.58,0.516-2.115,1.839-2.865,3.178c-0.473,0.846,0.823,1.602,1.295,0.758
					c0.514-0.918,0.87-2.131,1.968-2.488C44.198,64.768,43.806,63.318,42.884,63.619L42.884,63.619z"/>
			</g>
		</g>
		<g style="display:inline;">
			<g>
				<path style="fill:#A67C52;" d="M44.468,61.952c-2.567,0.389-4.347,2.859-5.449,5.012c-0.44,0.859,0.854,1.619,1.295,0.758
					c0.938-1.833,2.356-3.99,4.552-4.322C45.82,63.255,45.413,61.81,44.468,61.952L44.468,61.952z"/>
			</g>
		</g>
		<g style="display:inline;">
			<g>
				<path style="fill:#A67C52;" d="M64.282,16.203c-0.57-0.142-0.731-0.835-1.067-1.262c-0.524-0.666-1.325-0.979-1.935-1.545
					c-0.707-0.657-1.771,0.401-1.061,1.061c0.63,0.585,1.537,0.918,1.992,1.665c0.436,0.716,0.804,1.313,1.672,1.528
					C64.822,17.882,65.221,16.436,64.282,16.203L64.282,16.203z"/>
			</g>
		</g>
		<g style="display:inline;">
			<g>
				<path style="fill:#A67C52;" d="M62.73,19.048c-0.411-0.641-1.144-1.166-1.397-1.888c-0.307-0.87-0.245-1.971-0.302-2.887
					c-0.095-1.535-0.544-2.759-1.819-3.661c-0.617-0.437-1.428,0.415-1.026,1.026c1.276,1.946,3.609,2.982,4.424,5.238
					c0.175-0.307,0.35-0.615,0.524-0.922c-0.928,0.24-1.29-0.583-1.493-1.226c-0.291-0.919-1.739-0.526-1.447,0.398
					c0.49,1.549,1.636,2.715,3.339,2.274c0.373-0.097,0.661-0.542,0.524-0.922c-0.903-2.498-3.19-3.485-4.576-5.596
					c-0.342,0.342-0.684,0.684-1.026,1.026c1.384,0.979,1.101,3.064,1.244,4.561c0.153,1.596,0.934,2.085,1.737,3.337
					C61.956,20.616,63.255,19.864,62.73,19.048L62.73,19.048z"/>
			</g>
		</g>
		<g style="display:inline;">
			<g>
				<path style="fill:#A67C52;" d="M64.897,17.214c-1.322-2.708-2.931-5.191-5.686-6.603c-0.859-0.44-1.618,0.854-0.758,1.295
					c2.536,1.3,3.936,3.581,5.148,6.064C64.027,18.84,65.32,18.08,64.897,17.214L64.897,17.214z"/>
			</g>
		</g>
		<g style="display:inline;">
			<g>
				<path style="fill:#A67C52;" d="M43.468,65.952c-1.06,0.377-2.081,0.692-3.218,0.641c-0.967-0.044-0.963,1.456,0,1.5
					c1.266,0.058,2.436-0.274,3.616-0.693C44.771,67.077,44.382,65.628,43.468,65.952L43.468,65.952z"/>
			</g>
		</g>
	</g>
	<g id="augen">
		<g id="augeL">
			<path d="M34.624,27.413c-0.46,5.759-4.447,10.112-8.904,9.725c-4.459-0.388-7.701-5.37-7.242-11.129
				c0.461-5.759,4.447-10.112,8.905-9.725C31.841,16.67,35.084,21.653,34.624,27.413z"/>
			<g id="wei&#xDF;Gro&#xDF;">
				<path style="fill:#FFFFFF;" d="M26.755,20.628c0.24,1.28-0.88,2.694-2.503,3.161c-1.622,0.467-3.131-0.192-3.371-1.472
					c-0.24-1.279,0.88-2.694,2.503-3.16C25.005,18.689,26.515,19.349,26.755,20.628z"/>
			</g>
			<g id="weisKlein">
				<path style="fill:#FFFFFF;" d="M27.124,25.575c-0.059,0.75-0.745,1.305-1.53,1.238c-0.787-0.067-1.376-0.732-1.316-1.483
					c0.059-0.75,0.744-1.305,1.53-1.237C26.594,24.16,27.182,24.824,27.124,25.575z"/>
			</g>
		</g>
		<g id="augeR">
			<path d="M58.118,28.338c-0.459,5.742-4.332,10.09-8.648,9.715c-4.318-0.375-7.449-5.334-6.987-11.077
				c0.459-5.741,4.33-10.089,8.647-9.714C55.448,17.638,58.576,22.596,58.118,28.338z"/>
			<path style="fill:#FFFFFF;" d="M50.756,21.628c0.24,1.28-0.881,2.694-2.504,3.161c-1.621,0.467-3.131-0.192-3.371-1.472
				s0.881-2.694,2.504-3.16C49.006,19.689,50.516,20.349,50.756,21.628z"/>
			<path style="fill:#FFFFFF;" d="M51.64,26.329c-0.051,0.648-0.684,1.125-1.408,1.063c-0.728-0.062-1.276-0.64-1.225-1.289
				c0.051-0.648,0.681-1.125,1.408-1.063C51.142,25.102,51.688,25.68,51.64,26.329z"/>
		</g>
	</g>
	<g id="schoko">
		<g id="drop1">
			<g>
				<g>
					<path style="fill:#884534;" d="M64.352,25.304c-3.405,0.808-6.242,4.135-6.102,7.696c0.114,2.915,2.59,4.864,5.424,4.417
						c2.467-0.388,3.995-2.147,4.895-4.338c0.785-1.913,1.418-4.148,1.042-6.22c-0.438-2.406-3.267-2.517-4.962-1.401
						c-1.782,1.173-2.866,3.683-3.594,5.595c-0.682,1.792-0.769,4.581,1.813,4.64c2.74,0.063,4.376-3.861,5.135-5.954
						c0.023-0.072,0.046-0.143,0.069-0.214c0.598-1.846-2.3-2.63-2.893-0.798c-0.336,1.036-1.216,3.529-2.327,3.953
						c0.826-0.315,0.587,1.327,0.752,0.357c0.108-0.643,0.358-1.273,0.626-1.864c0.502-1.109,1.126-2.281,1.992-3.15
						c0.08-0.08,0.48-0.288,0.857-0.296c-0.559,0.012-0.352-0.457-0.344,0.352c0.02,1.919-0.831,5.005-2.574,6.054
						c-1.09,0.656-2.451,0.492-2.844-0.81c-0.696-2.309,1.818-4.646,3.831-5.125C67.03,27.75,66.232,24.857,64.352,25.304
						L64.352,25.304z"/>
				</g>
			</g>
		</g>
		<g id="drop2">
			<g>
				<g>
					<path style="fill:#884534;" d="M32.118,53.83c-2.181,1.151-2.578,3.642-2.162,5.867c0.472,2.529,2.401,4.312,4.98,4.279
						c2.947-0.036,5.354-2.381,6.389-4.958c0.529-1.315,0.433-2.95-0.264-4.174c-0.675-1.186-2.101-1.515-3.344-1.637
						c-2.251-0.22-4.963,0.074-5.735,2.517c-0.698,2.208-0.172,6.305,2.944,5.984c2.456-0.252,4.775-3.433,3.025-5.59
						c-0.62-0.764-1.971-0.851-2.78-0.392c-1.029,0.585-1.407,1.637-1.422,2.772c-0.02,1.436,1.594,1.814,2.561,1.061
						c0.625-0.487,1.206-1.215,1.963-1.489c1.805-0.652,1.026-3.552-0.798-2.893c-1.326,0.479-2.197,1.41-3.287,2.261
						c0.854,0.354,1.707,0.707,2.561,1.061c0.006-0.46-0.479,0.091-0.919-0.26c-0.065-0.588-0.157-0.708-0.272-0.359
						c-0.195,0.28-0.43,0.524-0.705,0.731c0.003,0.214-0.007,0.246-0.029,0.097c-0.091-0.248-0.125-0.505-0.103-0.769
						c-0.013-0.438-0.003-1.12,0.182-1.533c0.097-0.218,1.6-0.2,2.046-0.214c1.326-0.042,1.921,0.2,1.604,1.64
						c-0.348,1.584-3.213,4.319-4.867,2.814c-1.024-0.933-1.464-3.483-0.055-4.228C35.343,55.517,33.827,52.928,32.118,53.83
						L32.118,53.83z"/>
				</g>
			</g>
		</g>
		<g id="drop3">
			<g>
				<g>
					<path style="fill:#884534;" d="M33.132,15.545c3.162-1.484,6.509-0.963,9.136-3.599c1.782-1.788,2.375-5.079-0.619-6.018
						c-2.358-0.74-5.075,0.678-7.062,1.823c-1.85,1.065-4.472,2.829-4.908,5.1c-0.153,0.795,0.211,1.625,1.047,1.845
						c1.823,0.479,3.34,0.088,5.008-0.707c1.861-0.887,3.579-1.734,5.54-2.418c1.814-0.633,1.034-3.532-0.797-2.893
						c-1.35,0.471-2.698,0.908-4.012,1.476c-1.649,0.713-2.998,2.159-4.94,1.649c0.349,0.615,0.698,1.23,1.047,1.845
						c0.234-1.216,1.788-2.164,2.726-2.803c1.371-0.934,2.891-1.684,4.511-2.058c0.442-0.102,1.173-0.278,0.895,0.291
						c-0.382,0.782-1.188,1.398-1.909,1.845c-1.017,0.63-2.553,0.696-3.704,0.909c-1.222,0.226-2.35,0.595-3.472,1.122
						C29.868,13.776,31.392,16.362,33.132,15.545L33.132,15.545z"/>
				</g>
			</g>
			<g>
				<g>
					<path style="fill:#884534;" d="M38.868,7.08c-1.244,0.959-2.663,1.596-4.142,2.099c-1.821,0.619-1.039,3.517,0.798,2.893
						c1.71-0.581,3.418-1.292,4.858-2.401c0.646-0.498,0.991-1.279,0.539-2.052C40.546,6.98,39.518,6.579,38.868,7.08L38.868,7.08z"
						/>
				</g>
			</g>
			<g>
				<g>
					<path style="fill:#884534;" d="M31.314,12.939c-0.142,0.125-0.146,0.137-0.014,0.037c-0.155,0.089-0.131,0.087,0.072-0.005
						c0.489-0.096,0.888,0.07,1.195,0.498c0.186,0.261,0.033,0.045,0.004-0.117c-0.144-0.806-1.112-1.249-1.845-1.047
						c-0.842,0.231-1.191,1.041-1.047,1.845c0.149,0.839,0.653,1.432,1.447,1.728c0.838,0.313,1.736-0.269,2.31-0.816
						c0.592-0.563,0.567-1.554,0-2.121C32.847,12.351,31.906,12.376,31.314,12.939L31.314,12.939z"/>
				</g>
			</g>
		</g>
		<g id="drop4">
			<g>
				<g>
					<path style="fill:#884534;" d="M16.5,50.75c3.884-0.007,11.79-0.396,10.696-6.148c-0.09-0.473-0.576-0.957-1.047-1.048
						c-3.471-0.67-11.422,0.192-11.024,5.196c0.07,0.877,0.634,1.417,1.5,1.5c2.359,0.226,4.202-1.12,6.399-1.679
						c1.874-0.477,1.078-3.37-0.798-2.893c-1.896,0.482-3.583,1.765-5.601,1.571c0.5,0.5,1,1,1.5,1.5
						c-0.191-2.403,5.659-2.606,7.226-2.304c-0.349-0.349-0.698-0.698-1.047-1.048c0.467,2.457-6.36,2.349-7.804,2.352
						C14.565,47.753,14.565,50.753,16.5,50.75L16.5,50.75z"/>
				</g>
			</g>
		</g>
		<g id="drop5">
			<g>
				<g>
					<path style="fill:#884534;" d="M47.525,46.869c2.165,0.707,4.557,1.829,6.885,1.486c1.316-0.194,2.053-1.296,1.873-2.579
						c-0.204-1.452-1.971-2.066-3.144-2.505c-2.428-0.908-7.053-2.124-8.019,1.359c-0.559,2.019,1.524,3.437,3.092,4.077
						c2.262,0.925,4.506,1.247,6.751,0.111c1.727-0.873,0.208-3.461-1.514-2.59c-1.191,0.602-2.377,0.324-3.583-0.078
						c-0.562-0.188-1.16-0.419-1.624-0.797c-0.281-0.23-0.306,0.079-0.065-0.008c1.252-0.449,3.498,0.508,4.624,0.994
						c0.219,0.095,0.515,0.211,0.7,0.362c-0.241-0.352-0.203-0.722,0.115-1.111c0.295-0.373,0.331-0.179,0.211-0.17
						c-0.657,0.046-1.329-0.149-1.959-0.308c-1.207-0.304-2.365-0.752-3.547-1.138C46.479,43.374,45.694,46.271,47.525,46.869
						L47.525,46.869z"/>
				</g>
			</g>
		</g>
	</g>
</g>
<g id="beine_1_">
	<g id="beinL">
		<g>
			<path style="fill:#0071BC;" d="M32.25,73.833c-0.083-3.333-4.917-4.25-7.333-4.333c-2.667-0.083-5.25-0.083-7.917,0.333
				c-2.333,0.334-4.583,1.417-5.833,3.5c-0.667,1-1.583,2.25-1.25,3.584c0.5,2.25,4.083,2.333,5.917,2.583
				C18.5,80,21.25,80.167,24,80.167c1.75,0,4,0.25,5.75-0.25c2.167-0.584,5.5-4.25,2.25-5.834"/>
			<g>
				<path d="M33.696,73.435c-1.104-6.393-10.446-5.653-15.105-5.304c-4.856,0.364-12.203,4.376-9.647,10.29
					c0.764,1.767,3.672,2.199,5.262,2.387c4.73,0.557,9.374,1.061,14.154,0.859c4.507-0.189,9.012-5.633,4.397-8.879
					c-1.586-1.116-3.083,1.486-1.514,2.59c2.936,2.065-4.437,3.354-4.368,3.352c-1.492,0.063-3.031-0.064-4.524-0.084
					c-3.155-0.041-6.49-0.431-9.577-1.134c-3.746-0.852,1.438-5.14,1.66-5.289c1.996-1.344,5.006-1.188,7.312-1.261
					c2.681-0.087,8.422-0.413,9.058,3.27C31.132,76.136,34.023,75.326,33.696,73.435L33.696,73.435z"/>
			</g>
		</g>
	</g>
	<g id="beinR">
		<g>
			<path style="fill:#0071BC;" d="M44.563,72.063c4-3.375,10.719-2.469,15.719-2.219c3,0.125,7.672,4.266,5.422,7.641
				c-2,3-10.539,2.383-13.664,2.008C48.289,79.117,44,78,44,73.5c0-0.125,0-0.5,0-0.5"/>
			<g>
				<path d="M45.507,73.42c3.076-2.266,6.593-2.395,10.283-2.299c1.655,0.043,3.402,0.081,5.038,0.33
					c2.688,0.409,5.43,4.938,2.01,6.233c-4.199,1.589-16.963,1.582-16.963-4.56c0-1.935-3-1.935-3,0
					c0,5.579,4.528,7.298,9.375,7.875c3.766,0.448,11.239,1.434,14.114-1.918c3.152-3.676,0.35-8.779-3.844-10.217
					c-5.367-1.841-13.877-1.462-18.527,1.965C42.453,71.964,43.947,74.569,45.507,73.42L45.507,73.42z"/>
			</g>
		</g>
	</g>
</g>
<g id="mund">
	<g>
		<g>
			<path style="fill:#C1272D;" d="M38.902,49.984c-0.824,0.813-1.759,1.535-2.309,2.576c-0.226,0.428,0.421,0.807,0.647,0.379
				c0.519-0.982,1.415-1.658,2.191-2.424C39.777,50.175,39.247,49.646,38.902,49.984L38.902,49.984z"/>
		</g>
	</g>
	<g>
		<g>
			<path style="fill:#C1272D;" d="M38.722,49.817c-0.083,0.25-0.167,0.5-0.25,0.75c-0.153,0.46,0.571,0.655,0.724,0.199
				c0.083-0.25,0.167-0.5,0.25-0.75C39.599,49.557,38.874,49.361,38.722,49.817L38.722,49.817z"/>
		</g>
	</g>
	<g>
		<g>
			<path style="fill:#C1272D;" d="M35.933,50.361c0.923-0.232,1.871-0.236,2.817-0.236c0.483,0,0.484-0.75,0-0.75
				c-1.013,0-2.029,0.015-3.016,0.264C35.265,49.757,35.464,50.479,35.933,50.361L35.933,50.361z"/>
		</g>
	</g>
	<g>
		<g>
			<path style="fill:#C1272D;" d="M31.888,50.1c0.306,1.567,2.041,1.026,1.904-0.433c-0.023-0.246-0.221-0.422-0.475-0.361
				c-0.54,0.128-0.813,0.314-1.141,0.755c-0.163,0.22,0.055,0.592,0.324,0.564c0.891-0.091,1.632-0.432,2.439-0.801
				c-0.152-0.196-0.303-0.393-0.455-0.59c-0.262,0.297-0.57,0.527-0.924,0.691c0.152,0.196,0.303,0.393,0.455,0.59
				c0.212-0.107,0.423-0.214,0.635-0.321c-0.087-0.153-0.175-0.308-0.262-0.461c-0.034,0.165-0.062,0.332-0.083,0.5
				c-0.051,0.349,0.338,0.653,0.627,0.365c0.195-0.194,0.389-0.389,0.583-0.583c-0.209-0.056-0.418-0.11-0.627-0.166
				c0.018,0.113,0.046,0.225,0.083,0.333c0.209-0.121,0.418-0.243,0.627-0.365c-0.491-0.445-0.958-0.22-1.599-0.275
				c0.088,0.214,0.177,0.427,0.265,0.641c0.226-0.291,0.547-0.386,0.883-0.492c0.257-0.073,0.52-0.108,0.788-0.104
				c0.103,0.154,0.23,0.287,0.382,0.398c0.209,0.056,0.418,0.11,0.627,0.166c-0.122-0.295-0.038-0.502,0.302-0.521
				c0.165-0.01,0.744,0.002,0.397,0.213c0.184,0.075,0.368,0.149,0.551,0.225c-0.047,0.027-0.093,0.056-0.14,0.083
				c-0.069,0.337,0.249,0.564,0.551,0.424c-0.06,0.022-0.12,0.046-0.18,0.069c0.233,0.063,0.466,0.126,0.699,0.189
				c-0.052-0.268,0.014-0.51,0.199-0.727c-0.233-0.063-0.466-0.126-0.699-0.189c-0.058,0.676-0.796,0.942-1.314,1.176
				c0.184,0.142,0.367,0.283,0.551,0.424c0.162-0.306,0.325-0.612,0.487-0.918c-0.209-0.056-0.418-0.11-0.627-0.166
				c-0.137,0.275-0.274,0.551-0.411,0.826c0.184,0.075,0.367,0.149,0.551,0.225c0.043-0.265,0.086-0.529,0.129-0.794
				c-0.233-0.063-0.466-0.126-0.699-0.189c-0.13,0.328-0.26,0.656-0.39,0.984c0.209,0.056,0.418,0.11,0.627,0.166
				c-0.023-0.189-0.047-0.378-0.07-0.567c-0.25,0-0.5,0-0.75,0c0.103,0.873-0.655,1.039-1.225,1.139
				c0.154,0.087,0.308,0.175,0.461,0.262c0-0.211,0-0.423,0-0.634c-0.241,0-0.482,0-0.724,0c0.171,0.869-1.089,0.472-0.86-0.25
				c-0.241,0-0.482,0-0.724,0c-0.032-0.116-0.064-0.233-0.096-0.35c-0.028-0.479-0.75-0.487-0.75,0c0,0.277,0,0.556,0,0.833
				c0.246-0.033,0.491-0.066,0.737-0.1c-0.074-0.517-0.125-0.678-0.154-0.483c0.045,0.473,0.761,0.491,0.75,0
				c-0.007-0.32,0.341-1.253,0.772-1.289c0.07,0.715,0.172,0.85,0.308,0.404c0.255-0.341,0.604-0.504,1.045-0.49
				c-0.121-0.092-0.241-0.184-0.362-0.275c0.219,0.365,0.167,0.744-0.153,1.135c0.209,0.056,0.418,0.11,0.627,0.166
				c-0.109-0.289-0.16-0.589-0.153-0.9c-0.246,0.033-0.491,0.066-0.737,0.1c-0.098,0.403-0.197,0.808-0.295,1.211
				c0.229,0.097,0.457,0.192,0.686,0.289c-0.047,0.045-0.093,0.089-0.14,0.134c0.246,0.033,0.491,0.066,0.737,0.1
				c-0.011-0.239-0.035-0.36-0.097-0.6c-0.111-0.428-0.708-0.31-0.737,0.1c-0.023,0.305-0.074,0.605-0.153,0.9
				c0.246,0.033,0.491,0.066,0.737,0.1c0.061-1.004,0.713-0.105-0.058,0.056c0.154,0.087,0.308,0.175,0.461,0.262
				c-0.203-0.501-0.456-1.659,0.405-1.789c-0.154-0.087-0.308-0.175-0.461-0.262c0.178,0.531,0.043,0.966-0.403,1.302
				c0.209,0.056,0.418,0.11,0.627,0.166c-0.186-0.764-0.075-1.367,0.486-1.969c-0.209-0.056-0.418-0.11-0.627-0.166
				c0.249,0.625,0.128,1.429-0.654,1.706c0.154,0.153,0.308,0.308,0.461,0.461c0.268-0.158,0.537-0.316,0.805-0.475
				c-0.121-0.158-0.241-0.316-0.362-0.475c-0.22,0.259-0.44,0.518-0.661,0.775c0.152,0.196,0.303,0.393,0.455,0.59
				c0.245-0.103,0.49-0.205,0.735-0.308c-0.088-0.214-0.177-0.427-0.265-0.641c-0.52,0.542-2.791,1.265-3.207,0.25
				c-0.178-0.435-0.854-0.28-0.724,0.199c0.366,1.341,1.564,1.97,2.71,1.082c0.382-0.296-0.153-0.823-0.53-0.531
				c-0.875,0.218-1.361-0.033-1.457-0.75c-0.241,0.066-0.482,0.133-0.724,0.199c0.664,1.617,3.467,1.119,4.46,0.082
				c0.209-0.219,0.077-0.672-0.265-0.641c-0.555,0.051-0.839,0.181-1.265,0.526c-0.339,0.276,0.095,0.795,0.455,0.59
				c0.527-0.302,0.808-0.652,1.005-1.225c0.082-0.238-0.131-0.467-0.362-0.475c-0.779-0.025-1.279,0.292-1.528,1.025
				c-0.089,0.262,0.198,0.555,0.461,0.461c1.079-0.382,1.604-1.559,1.179-2.628c-0.098-0.246-0.417-0.391-0.627-0.166
				c-0.72,0.773-0.929,1.674-0.68,2.699c0.073,0.3,0.419,0.33,0.627,0.166c0.662-0.525,0.757-1.238,0.597-2.032
				c-0.044-0.218-0.271-0.291-0.461-0.262c-1.254,0.188-1.315,1.758-0.929,2.711c0.081,0.199,0.243,0.308,0.461,0.262
				c2.54-0.528-0.716-3.684-0.891-0.778c-0.025,0.424,0.643,0.51,0.737,0.1c0.085-0.375,0.153-0.717,0.18-1.1
				c-0.246,0.033-0.491,0.066-0.737,0.1c0.023,0.134,0.047,0.267,0.07,0.4c0.02,0.411,0.632,0.524,0.737,0.1
				c0.314-1.278-1.039-2.047-1.307-0.532c-0.073,0.411,0.448,0.662,0.686,0.289c0.38-0.598,0.489-1.092,0.372-1.789
				c-0.073-0.434-0.722-0.306-0.737,0.1s0.064,0.707,0.18,1.1c0.075,0.251,0.438,0.39,0.627,0.166
				c1.422-1.691-1.127-2.783-1.307-1.266c-0.17,1.434,2.357,1.099,1.653-0.6c-0.061-0.147-0.183-0.29-0.362-0.275
				c-0.862,0.068-1.583,0.418-1.874,1.278c-0.149,0.44,0.268,1.104,0.767,0.76c1.597-1.101,0.095-2.664-1.215-1.559
				c-1.26,1.063,1.165,3.08,1.837,1.256c0.261-0.709-0.309-1.375-0.98-1.412c-0.915-0.05-1.426,1.058-1.41,1.802
				c0.25,0,0.5,0,0.75,0c-0.171-1.798-1.921-0.83-1.32,0.683c0.149,0.375,0.737,0.351,0.737-0.1c0-0.277,0-0.556,0-0.833
				c-0.25,0-0.5,0-0.75,0c0.08,1.382,1.875,1.708,1.57,0.15c-0.076-0.385-0.619-0.331-0.724,0c-0.279,0.881,0.754,2.102,1.594,1.262
				c0.495-0.494-0.116-1.92-0.793-1.415c-0.533,0.398-0.951,1.66,0.023,1.853c0.963,0.189,1.672-0.488,1.483-1.449
				c-0.075-0.381-0.623-0.336-0.724,0c-0.12,0.401-0.097,0.628,0,1.032c0.051,0.213,0.266,0.296,0.461,0.262
				c1.002-0.175,1.907-0.742,1.775-1.861c-0.055-0.467-0.766-0.494-0.75,0c0.01,0.323,0.027,0.449,0.097,0.767
				c0.062,0.28,0.436,0.357,0.627,0.166c0.46-0.461,0.638-0.862,0.61-1.516c-0.017-0.384-0.489-0.498-0.699-0.189
				c-0.333,0.49-0.36,0.792-0.205,1.372c0.068,0.255,0.334,0.318,0.551,0.225c0.761-0.331,1.042-0.888,0.756-1.674
				c-0.095-0.259-0.415-0.378-0.627-0.166c-0.394,0.394-0.577,0.701-0.68,1.25c-0.063,0.339,0.244,0.563,0.551,0.424
				c0.844-0.382,1.602-0.841,1.686-1.824c0.035-0.409-0.503-0.46-0.699-0.189c-0.279,0.386-0.313,0.632-0.301,1.105
				c0.01,0.378,0.499,0.505,0.699,0.189c0.535-0.842,0.099-1.536-0.846-1.097c0.184,0.142,0.367,0.283,0.551,0.424
				c0.302-1.462-1.615-1.537-1.307-0.083c0.05,0.236,0.353,0.345,0.551,0.225c2.208-1.345-2.841-2.667-1.801-0.142
				c0.112,0.271,0.394,0.358,0.627,0.166c0.817-0.677,0.432-2.019-0.757-1.692c-0.997,0.274-1.446,1.571-0.531,2.168
				c1.111,0.723,1.798-0.968,1.347-1.764c-0.536-0.945-2.68-0.21-3.172,0.424c-0.204,0.264-0.081,0.61,0.265,0.641
				c0.229,0.02,0.884-0.11,1.068,0.057c0.266,0.241,0.743,0.011,0.627-0.365c-0.038-0.108-0.066-0.22-0.083-0.333
				c-0.06-0.281-0.437-0.356-0.627-0.166c-0.194,0.195-0.389,0.39-0.583,0.583c0.209,0.122,0.418,0.244,0.627,0.365
				c0.021-0.168,0.048-0.334,0.083-0.5c0.034-0.18-0.048-0.431-0.262-0.461c-0.631-0.089-0.952,0.015-1.365,0.513
				c-0.265,0.32,0.064,0.806,0.455,0.59c0.423-0.234,0.743-0.466,1.076-0.809c0.313-0.322-0.08-0.761-0.455-0.59
				c-0.676,0.31-1.307,0.622-2.061,0.699c0.108,0.188,0.216,0.376,0.324,0.564c0.174-0.25,0.405-0.388,0.693-0.411
				c-0.158-0.12-0.316-0.241-0.475-0.361c-0.144,0.078-0.287,0.155-0.43,0.233C32.519,49.426,31.796,49.627,31.888,50.1L31.888,50.1
				z"/>
		</g>
	</g>
	<g>
		<g>
			<path style="fill:#C1272D;" d="M32.356,50.157c2.271-1.09,5.089-1.763,7.288-0.166c0.392,0.284,0.766-0.367,0.379-0.648
				c-2.42-1.757-5.542-1.034-8.045,0.166C31.542,49.719,31.922,50.365,32.356,50.157L32.356,50.157z"/>
		</g>
	</g>
	<g>
		<g>
			<path style="fill:#C1272D;" d="M39.676,49.728c-1.072,1.627-2.737,3.55-4.84,3.668c-1.473,0.083-1.999-2.576-2.429-3.585
				c-0.189-0.443-0.835-0.061-0.647,0.379c0.548,1.287,1.023,3.709,2.755,3.918c2.46,0.296,4.603-2.17,5.809-4.001
				C40.591,49.701,39.941,49.326,39.676,49.728L39.676,49.728z"/>
		</g>
	</g>
	<g>
		<g>
			<path d="M42.567,37.638c-1.562,0.601-3.186,0.477-4.825,0.414c-1.983-0.076-3.928,0.154-5.893-0.247
				c-0.472-0.096-0.673,0.627-0.199,0.724c1.828,0.373,3.662,0.281,5.517,0.263c1.917-0.018,3.765,0.276,5.6-0.43
				C43.213,38.19,43.02,37.464,42.567,37.638L42.567,37.638z"/>
		</g>
	</g>
	<g>
		<g>
			<path d="M42.125,42.833c0.103,2.225-0.869,4.461-2.032,6.311c-0.258,0.411,0.391,0.787,0.647,0.379
				c1.228-1.955,2.243-4.341,2.134-6.689C42.853,42.352,42.103,42.35,42.125,42.833L42.125,42.833z"/>
		</g>
	</g>
	<g>
		<g>
			<path d="M42.093,43.144c-0.245,0.511-0.435,1.031-0.537,1.59c-0.088,0.473,0.635,0.675,0.723,0.199
				c0.092-0.494,0.244-0.957,0.463-1.41C42.949,43.089,42.303,42.708,42.093,43.144L42.093,43.144z"/>
		</g>
	</g>
	<g>
		<g>
			<path d="M42.625,38.083c-0.025,1.818-0.181,3.627-0.515,5.417c-0.3,1.604-1.205,3.048-1.555,4.65
				c-0.103,0.472,0.62,0.672,0.723,0.199c0.353-1.61,1.117-3.066,1.556-4.65c0.489-1.77,0.516-3.797,0.541-5.616
				C43.382,37.6,42.632,37.6,42.625,38.083L42.625,38.083z"/>
		</g>
	</g>
	<g>
		<g>
			<path d="M35.625,47.083c0.032-0.577,1.016-0.976,1.468-1.25c0.554-0.335,1.171-0.705,1.824-0.791
				c-0.121-0.158-0.241-0.316-0.362-0.475c-0.188,0.645-0.724,0.989-1.245,1.358c0.171,0.172,0.342,0.343,0.513,0.514
				c0.274-0.636,0.757-1.119,1.167-1.667c-0.216-0.126-0.432-0.253-0.647-0.379c-0.255,0.47-0.564,0.848-1.033,1.115
				c0.184,0.142,0.367,0.283,0.551,0.424c0.039-0.267,0.151-0.501,0.25-0.75c0.178-0.45-0.548-0.644-0.724-0.199
				c-0.101,0.257-0.21,0.476-0.25,0.75c-0.045,0.311,0.239,0.603,0.551,0.424c0.575-0.33,0.987-0.806,1.301-1.385
				c0.236-0.436-0.364-0.757-0.647-0.379c-0.414,0.552-0.89,1.025-1.167,1.667c-0.131,0.304,0.169,0.757,0.513,0.514
				c0.69-0.49,1.341-0.96,1.589-1.808c0.062-0.212-0.117-0.507-0.362-0.475c-0.945,0.124-1.773,0.625-2.57,1.119
				c-0.724,0.448-1.419,0.737-1.472,1.672C34.848,47.566,35.598,47.563,35.625,47.083L35.625,47.083z"/>
		</g>
	</g>
	<g>
		<g>
			<path d="M33,47.625c1.17-0.008,2.337-0.111,3.496-0.273c1.047-0.147,2.43-0.343,3.187-1.169c0.201-0.22,0.102-0.528-0.166-0.627
				c-1.141-0.422-2.057,0.258-3.039,0.787c-0.434,0.234-0.053,0.841,0.379,0.648c0.88-0.394,1.679-0.915,2.5-1.417
				c0.254-0.156,0.247-0.627-0.09-0.686c-1.203-0.209-2.389-0.042-3.6-0.014c0.063,0.233,0.126,0.466,0.189,0.699
				c0.513-0.312,1.044-0.571,1.583-0.833c-0.152-0.196-0.303-0.393-0.455-0.59c-0.54,0.644-1.258,1.077-2.084,1.237
				c0.141,0.184,0.282,0.367,0.423,0.551c0.231-0.192,0.462-0.386,0.693-0.578c-0.154-0.153-0.308-0.308-0.461-0.461
				c-0.196,0.572-0.417,0.966-0.82,1.417c0.196,0.152,0.393,0.304,0.589,0.455c0.173-0.384,0.32-0.773,0.455-1.173
				c0.092-0.274-0.198-0.535-0.461-0.461c-0.496,0.139-0.912,0.335-1.34,0.62c-0.24,0.161-0.242,0.488,0,0.648
				c0.188,0.123,0.383,0.13,0.606,0.135c-0.108-0.188-0.216-0.376-0.324-0.564c-0.129,0.187-0.231,0.381-0.333,0.583
				c-0.203,0.4,0.26,0.71,0.589,0.455c0.62-0.482,1.174-0.955,1.918-1.237c-0.158-0.12-0.316-0.241-0.475-0.361
				c0.042,0.337-0.01,0.665-0.153,0.983c-0.136,0.363,0.376,0.618,0.627,0.365c0.321-0.324,0.626-0.648,0.917-1
				c-0.196-0.025-0.393-0.051-0.589-0.076c0.011,0.048,0.021,0.096,0.032,0.144c0.015,0.23,0.23,0.442,0.475,0.361
				c0.083-0.027,0.167-0.055,0.25-0.083c-0.141-0.184-0.282-0.367-0.423-0.551c-0.442,0.677-0.661,1.144-0.25,1.879
				c0.236,0.422,0.884,0.044,0.647-0.379c-0.095-0.436-0.011-0.81,0.25-1.121c0.177-0.271-0.115-0.653-0.423-0.551
				c-0.083,0.027-0.167,0.055-0.25,0.083c0.158,0.12,0.316,0.241,0.475,0.361c-0.013-0.212-0.049-0.327-0.135-0.522
				c-0.092-0.211-0.445-0.25-0.589-0.076c-0.29,0.353-0.596,0.677-0.917,1c0.209,0.122,0.418,0.244,0.627,0.365
				c0.161-0.43,0.199-0.72,0.18-1.183c-0.009-0.224-0.236-0.452-0.475-0.361c-0.863,0.327-1.528,0.868-2.249,1.429
				c0.196,0.152,0.393,0.304,0.589,0.455c0.103-0.202,0.204-0.397,0.333-0.583c0.169-0.243-0.059-0.559-0.324-0.564
				c-0.081,0.014-0.156,0.003-0.227-0.033c0,0.216,0,0.433,0,0.648c0.366-0.245,0.735-0.427,1.16-0.546
				c-0.154-0.153-0.308-0.308-0.461-0.461c-0.114,0.338-0.232,0.667-0.379,0.993c-0.164,0.362,0.284,0.796,0.589,0.455
				c0.468-0.525,0.786-1.084,1.014-1.749c0.099-0.29-0.201-0.513-0.461-0.461c-0.573,0.113-0.873,0.415-1.141,0.922
				c-0.161,0.304,0.1,0.614,0.423,0.551c0.938-0.182,1.802-0.698,2.416-1.429c0.276-0.329-0.063-0.78-0.455-0.59
				c-0.539,0.263-1.07,0.522-1.583,0.833c-0.312,0.189-0.192,0.708,0.189,0.699c1.136-0.026,2.27-0.21,3.4-0.014
				c-0.03-0.229-0.06-0.457-0.09-0.686c-0.82,0.503-1.62,1.023-2.5,1.417c0.126,0.216,0.252,0.433,0.379,0.648
				c0.768-0.415,1.525-1.059,2.461-0.713c-0.055-0.209-0.11-0.418-0.166-0.627c-0.657,0.719-1.948,0.834-2.855,0.977
				c-1.085,0.171-2.198,0.239-3.296,0.247C32.517,46.878,32.516,47.628,33,47.625L33,47.625z"/>
		</g>
	</g>
	<g>
		<g>
			<path d="M32.517,47.444c0.565-0.2,1.101-0.465,1.667-0.666c0.454-0.161,0.276-0.827-0.199-0.723
				c-0.263-0.18-0.526-0.359-0.789-0.539c-0.241,0-0.482,0-0.724,0c0.163,0.415,0.305,0.818,0.417,1.25
				c0.075,0.289,0.42,0.344,0.627,0.166c0.317-0.274,0.628-0.53,0.917-0.834c-0.213-0.089-0.427-0.177-0.64-0.266
				c-0.007,0.348-0.086,0.676-0.237,0.984c0.241,0.066,0.482,0.133,0.724,0.199c0.187-1.012,0.805-1.757,1.378-2.577
				c-0.216-0.126-0.432-0.253-0.647-0.379c-0.439,0.824-1.061,1.425-1.775,2.007c-0.376,0.308,0.158,0.83,0.53,0.531
				c1.158-0.93,2.241-1.988,3.668-2.487c-0.154-0.153-0.308-0.308-0.461-0.461c-0.098,0.22-0.197,0.44-0.295,0.66
				c-0.18,0.369,0.279,0.775,0.589,0.455c0.24-0.25,0.354-0.387,0.559-0.659c-0.233-0.063-0.466-0.126-0.699-0.189
				c-0.01,0.372-0.089,0.728-0.237,1.066c-0.141,0.4,0.499,0.67,0.686,0.289c0.193-0.394,0.408-0.73,0.667-1.083
				c-0.229-0.03-0.457-0.06-0.686-0.09c0.121,0.286,0.171,0.586,0.153,0.9c-0.018,0.497,0.688,0.463,0.75,0
				c0.063-0.477,0.081-0.937,0.083-1.417c-0.233,0.063-0.466,0.126-0.699,0.189c0.22,0.489,0.294,0.975,0.378,1.494
				c0.057,0.35,0.523,0.328,0.686,0.09c0.3-0.438,0.506-0.852,0.705-1.34c-0.241,0-0.482,0-0.724,0
				c0.134,0.54,0.15,1.02,0.154,1.566c0.25,0,0.5,0,0.75,0c-0.028-0.25-0.056-0.5-0.083-0.75c-0.052-0.469-0.766-0.493-0.75,0
				c0.01,0.32,0.031,0.64,0.052,0.96c0.063,0.982-1.057,0.663-1.565,0.391c-0.582-0.312-1.118-0.469-1.778-0.476
				c-0.484-0.005-0.483,0.745,0,0.75c1.258,0.013,2.115,1.055,3.414,0.771c0.968-0.211,0.647-1.76,0.627-2.396c-0.25,0-0.5,0-0.75,0
				c0.028,0.25,0.056,0.5,0.083,0.75c0.052,0.469,0.753,0.494,0.75,0c-0.003-0.607-0.034-1.177-0.18-1.766
				c-0.098-0.395-0.595-0.318-0.724,0c-0.151,0.421-0.36,0.808-0.628,1.16c0.229,0.03,0.457,0.06,0.686,0.09
				c-0.097-0.593-0.209-1.128-0.455-1.674c-0.16-0.354-0.697-0.159-0.699,0.189c-0.003,0.48-0.02,0.94-0.083,1.417
				c0.25,0,0.5,0,0.75,0c0.014-0.407-0.05-0.709-0.18-1.1c-0.109-0.326-0.494-0.352-0.686-0.09
				c-0.259,0.354-0.475,0.689-0.667,1.083c0.229,0.097,0.457,0.192,0.686,0.289c0.154-0.438,0.231-0.809,0.263-1.266
				c0.029-0.412-0.499-0.456-0.699-0.189c-0.147,0.169-0.294,0.338-0.441,0.507c0.196,0.152,0.393,0.304,0.589,0.455
				c0.148-0.305,0.249-0.529,0.372-0.84c0.103-0.262-0.207-0.55-0.461-0.461c-1.559,0.544-2.733,1.663-3.999,2.679
				c0.177,0.177,0.354,0.354,0.53,0.531c0.767-0.627,1.425-1.282,1.892-2.159c0.23-0.433-0.373-0.771-0.647-0.379
				c-0.616,0.882-1.254,1.678-1.455,2.757c-0.089,0.48,0.548,0.647,0.724,0.199c0.158-0.404,0.229-0.756,0.263-1.184
				c0.026-0.33-0.425-0.491-0.64-0.266c-0.289,0.305-0.6,0.561-0.917,0.834c0.209,0.056,0.418,0.11,0.627,0.166
				c-0.112-0.432-0.254-0.835-0.417-1.25c-0.13-0.33-0.615-0.383-0.724,0c-0.347,1.224,0.613,1.701,1.711,1.461
				c-0.066-0.241-0.133-0.481-0.199-0.723c-0.565,0.2-1.101,0.465-1.667,0.666C31.865,46.882,32.06,47.607,32.517,47.444
				L32.517,47.444z"/>
		</g>
	</g>
	<g>
		<g>
			<path d="M31.708,39.583c-0.01,1.131-0.036,2.235,0.18,3.349c0.07,0.362,0.649,0.356,0.724,0c0.234-1.115,0.651-2.613,0.045-3.622
				C32.471,39,31.945,39.119,31.958,39.5c0.024,0.692,0.115,1.34,0.263,2.017c0.097,0.442,0.698,0.295,0.737-0.1
				c0.04-0.404,0.12-0.84,0.167-1.25c-0.246,0.033-0.491,0.066-0.737,0.1c0.196,0.808,0.165,1.581,0.154,2.401
				c-0.006,0.436,0.609,0.494,0.737,0.1c0.095-0.274,0.178-0.553,0.25-0.834c-0.246-0.033-0.491-0.066-0.737-0.1
				c0.071,0.706,0.127,1.403,0.263,2.1c0.071,0.361,0.649,0.357,0.724,0c0.217-1.048,0.269-2.107,0.417-3.167
				c-0.246-0.033-0.491-0.066-0.737-0.1c-0.059,0.777-0.25,1.424-0.487,2.151c0.246,0.033,0.491,0.066,0.737,0.1
				c-0.107-0.92-0.041-1.742,0.449-2.561c-0.233-0.063-0.466-0.126-0.699-0.189c0.028,0.389,0.056,0.778,0.083,1.167
				c0.246-0.033,0.491-0.066,0.737-0.1c-0.023-0.328-0.047-0.656-0.07-0.983c-0.233,0.063-0.466,0.126-0.699,0.189
				c0.083,0.139,0.167,0.277,0.25,0.417c0.12,0.2,0.423,0.257,0.589,0.076c0.281-0.308,0.559-0.576,0.809-0.909
				c-0.229-0.03-0.457-0.06-0.686-0.09c0.028,0.194,0.056,0.389,0.083,0.583c0.057,0.399,0.616,0.314,0.724,0
				c0.069-0.228,0.152-0.45,0.25-0.667c-0.241,0-0.482,0-0.724,0c0.109,0.765,0.379,0.948,0.93,1.499
				c0.169,0.168,0.47,0.135,0.589-0.076c0.502-0.893,0.338-2.111-0.923-1.634c-0.331,0.125-0.383,0.62,0,0.724
				c0.889,0.239,1.628,0.292,2.533,0.167c-0.066-0.241-0.133-0.482-0.199-0.724c-0.333,0.111-0.667,0.223-1,0.333
				c-0.41,0.137-0.324,0.707,0.1,0.737c1.107,0.078,2.179,0.041,3.266-0.18c0.445-0.09,0.292-0.697-0.1-0.737
				c-0.587-0.059-1.161-0.081-1.75-0.083c0.088,0.213,0.177,0.427,0.265,0.64c0.268-0.051,0.535-0.103,0.802-0.153
				c-0.03-0.229-0.06-0.457-0.09-0.686c-1.171,0.568-1.686,1.442-1.686,2.741c0,0.434,0.608,0.497,0.737,0.1
				c0.188-0.586,0.394-1.165,0.583-1.75c-0.246-0.033-0.491-0.066-0.737-0.1c0.014,0.419-0.014,0.836-0.083,1.25
				c-0.046,0.395,0.517,0.479,0.699,0.189c0.214-0.341,0.452-0.66,0.667-1.001c-0.233-0.063-0.466-0.126-0.699-0.189
				c0.06,0.449,0.08,0.881,0.083,1.333c0.003,0.487,0.72,0.479,0.75,0c0.003-0.428,0.082-0.839,0.237-1.233
				c-0.241,0-0.482,0-0.724,0c0.119,0.661,0.091,1.316-0.083,1.967c0.246,0.033,0.491,0.066,0.737,0.1
				c-0.032-0.535,0.047-1.058,0.237-1.566c-0.241,0-0.482,0-0.724,0c0.184,1.148,0.083,2.217-0.378,3.294
				c0.233,0.063,0.466,0.126,0.699,0.189c-0.083-0.361-0.083-0.722,0-1.083c-0.125,0.125-0.25,0.25-0.375,0.375
				c0.028,0,0.055,0,0.083,0c0.217,0,0.358-0.171,0.375-0.375c0.028-0.333,0.056-0.667,0.083-1c-0.25,0-0.5,0-0.75,0
				c0.079,0.792,0.111,1.431-0.07,2.233c0.241,0,0.482,0,0.724,0c-0.355-1.314-0.254-2.639-0.237-3.983
				c0.006-0.493-0.702-0.471-0.75,0c-0.099,0.954-0.253,1.887-0.487,2.816c0.246,0.033,0.491,0.066,0.737,0.1
				c-0.052-0.842-0.004-1.662,0.083-2.5c0.038-0.366-0.544-0.52-0.699-0.189c-0.423,0.908-0.767,1.835-1.333,2.667
				c0.229,0.03,0.457,0.06,0.686,0.09c-0.135-0.381-0.159-0.765-0.07-1.15c0.055-0.458-0.591-0.453-0.737-0.1
				c-0.085,0.208-0.086,0.285-0.097,0.517c0.25,0,0.5,0,0.75,0c-0.028-0.417-0.056-0.833-0.083-1.25
				c-0.029-0.436-0.586-0.494-0.737-0.1c-0.181,0.483-0.39,0.953-0.628,1.41c0.233,0.063,0.466,0.126,0.699,0.189
				c-0.069-0.414-0.097-0.831-0.083-1.25c-0.25,0-0.5,0-0.75,0c0.069,0.432,0.018,0.843-0.153,1.233c0.241,0,0.482,0,0.724,0
				c-0.209-0.571-0.285-1.158-0.417-1.75c-0.068-0.307-0.544-0.38-0.686-0.09c-0.155,0.299-0.294,0.604-0.417,0.917
				c0.233,0.063,0.466,0.126,0.699,0.189c0-0.333,0-0.667,0-1c0-0.411-0.676-0.527-0.737-0.1c-0.062,0.443-0.104,0.891-0.167,1.333
				c0.246,0.033,0.491,0.066,0.737,0.1c0-0.556,0-1.111,0-1.667c0-0.38-0.504-0.503-0.699-0.189
				c-0.446,0.719-0.689,1.504-1.083,2.25c0.233,0.063,0.466,0.126,0.699,0.189c-0.096-0.801-0.016-1.536,0.083-2.333
				c-0.25,0-0.5,0-0.75,0c0.056,0.68,0.058,1.345,0.18,2.017c0.062,0.337,0.527,0.344,0.686,0.09c0.311-0.498,0.607-1.003,0.917-1.5
				c-0.229-0.03-0.457-0.06-0.686-0.09c0.028,0.111,0.056,0.222,0.083,0.333c0.101,0.404,0.773,0.327,0.737-0.1
				c-0.024-0.306-0.052-0.611-0.083-0.917c-0.046-0.477-0.72-0.488-0.75,0c-0.105,1.698-1,3.137-1.699,4.645
				c0.233,0.063,0.466,0.126,0.699,0.189c-0.068-0.867-0.068-1.717,0-2.584c-0.25,0-0.5,0-0.75,0
				c-0.003,0.507-0.024,0.996-0.083,1.5c0.25,0,0.5,0,0.75,0c-0.012-0.806-0.055-1.599,0.07-2.4c0.073-0.469-0.632-0.68-0.724-0.199
				c-0.117,0.614-0.277,1.165-0.5,1.75c0.246,0.033,0.491,0.066,0.737,0.1c-0.028-0.361-0.056-0.722-0.083-1.083
				c-0.037-0.477-0.75-0.489-0.75,0c0,0.5,0,1,0,1.5c0,0.412,0.668,0.526,0.737,0.1c0.103-0.647,0.222-1.151,0.545-1.743
				c-0.229-0.03-0.457-0.06-0.686-0.09c0.171,0.645,0.186,1.247,0.237,1.9c0.034,0.432,0.586,0.499,0.737,0.1
				c0.244-0.646,0.5-1.285,0.795-1.91c-0.233-0.063-0.466-0.126-0.699-0.189c0.089,0.469,0.066,0.936-0.07,1.4
				c-0.09,0.396,0.507,0.693,0.686,0.289c0.179-0.406,0.418-0.719,0.667-1.084c-0.229-0.03-0.457-0.06-0.686-0.09
				c0.048,0.307,0.104,0.612,0.167,0.917c0.063,0.321,0.538,0.363,0.686,0.09c0.156-0.27,0.295-0.547,0.417-0.833
				c-0.233-0.063-0.466-0.126-0.699-0.189c0.056,0.476,0.08,0.938,0.083,1.416c0.002,0.278,0.319,0.476,0.564,0.324
				c0.508-0.315,0.949-0.677,1.5-0.916c-0.184-0.075-0.367-0.149-0.551-0.225c0.137,0.341,0.215,0.696,0.237,1.066
				c0.009,0.4,0.484,0.476,0.699,0.189c0.167-0.222,0.333-0.444,0.5-0.666c-0.229-0.03-0.457-0.06-0.686-0.09
				c0.142,0.363,0.264,0.698,0.333,1.083c0.054,0.296,0.435,0.338,0.627,0.166c0.367-0.329,0.714-0.675,1.083-1
				c-0.209-0.056-0.418-0.11-0.627-0.166c0.112,0.374,0.163,0.758,0.153,1.15c-0.011,0.372,0.52,0.514,0.699,0.189
				c0.128-0.214,0.239-0.437,0.333-0.667c-0.233-0.063-0.466-0.126-0.699-0.189c0.071,0.892-0.264,1.718-0.487,2.567
				c0.184-0.075,0.368-0.149,0.551-0.225c-0.927-0.423-2.022-0.329-3.014-0.288c-0.536,0.021-3.539,0.541-3.852,0.006
				c-0.244-0.417-0.893-0.04-0.647,0.379c0.416,0.71,1.714,0.508,2.379,0.482c1.417-0.053,3.419-0.541,4.755,0.069
				c0.215,0.098,0.485,0.027,0.551-0.225c0.242-0.923,0.59-1.8,0.513-2.767c-0.026-0.334-0.529-0.56-0.699-0.189
				c-0.095,0.23-0.206,0.453-0.333,0.667c0.233,0.063,0.466,0.126,0.699,0.189c0.014-0.482-0.068-0.876-0.18-1.35
				c-0.069-0.29-0.425-0.343-0.627-0.166c-0.37,0.326-0.717,0.672-1.083,1c0.209,0.056,0.418,0.11,0.627,0.166
				c-0.07-0.385-0.192-0.72-0.333-1.083c-0.124-0.317-0.484-0.358-0.686-0.09c-0.167,0.223-0.333,0.444-0.5,0.666
				c0.233,0.063,0.466,0.126,0.699,0.189c-0.011-0.474-0.111-0.813-0.263-1.266c-0.084-0.249-0.322-0.323-0.551-0.225
				c-0.551,0.239-0.992,0.602-1.5,0.916c0.188,0.108,0.376,0.216,0.564,0.324c-0.003-0.479-0.027-0.94-0.083-1.416
				c-0.038-0.326-0.523-0.567-0.699-0.189c-0.123,0.286-0.261,0.563-0.417,0.833c0.229,0.03,0.457,0.06,0.686,0.09
				c-0.063-0.305-0.119-0.61-0.167-0.917c-0.059-0.348-0.522-0.33-0.686-0.09c-0.248,0.366-0.488,0.678-0.667,1.084
				c0.229,0.097,0.457,0.192,0.686,0.289c0.129-0.566,0.158-1.013,0.096-1.6c-0.035-0.33-0.522-0.563-0.699-0.189
				c-0.323,0.687-0.603,1.381-0.871,2.09c0.246,0.033,0.491,0.066,0.737,0.1c-0.056-0.72-0.078-1.401-0.263-2.1
				c-0.082-0.309-0.529-0.376-0.686-0.09c-0.338,0.62-0.509,1.222-0.622,1.923c0.246,0.033,0.491,0.066,0.737,0.1c0-0.5,0-1,0-1.5
				c-0.25,0-0.5,0-0.75,0c0.028,0.361,0.056,0.722,0.083,1.083c0.033,0.433,0.585,0.497,0.737,0.1c0.223-0.585,0.383-1.136,0.5-1.75
				c-0.241-0.066-0.482-0.133-0.724-0.199c-0.135,0.868-0.109,1.722-0.097,2.6c0.007,0.496,0.695,0.468,0.75,0
				c0.059-0.504,0.081-0.993,0.083-1.5c0.003-0.489-0.712-0.476-0.75,0c-0.068,0.867-0.068,1.717,0,2.584
				c0.026,0.335,0.528,0.559,0.699,0.189c0.761-1.641,1.687-3.179,1.801-5.023c-0.25,0-0.5,0-0.75,0
				c0.031,0.306,0.059,0.611,0.083,0.917c0.246-0.033,0.491-0.066,0.737-0.1c-0.028-0.111-0.056-0.222-0.083-0.333
				c-0.081-0.325-0.519-0.356-0.686-0.09c-0.311,0.498-0.607,1.003-0.917,1.5c0.229,0.03,0.457,0.06,0.686,0.09
				c-0.11-0.604-0.104-1.209-0.153-1.817c-0.04-0.49-0.691-0.474-0.75,0c-0.099,0.797-0.179,1.532-0.083,2.333
				c0.041,0.337,0.507,0.553,0.699,0.189c0.391-0.739,0.642-1.538,1.083-2.25c-0.233-0.063-0.466-0.126-0.699-0.189
				c0,0.556,0,1.111,0,1.667c0,0.411,0.676,0.527,0.737,0.1c0.063-0.443,0.104-0.89,0.167-1.333c-0.246-0.033-0.491-0.066-0.737-0.1
				c0,0.333,0,0.667,0,1c0,0.347,0.546,0.548,0.699,0.189c0.123-0.313,0.262-0.619,0.417-0.917c-0.229-0.03-0.457-0.06-0.686-0.09
				c0.132,0.592,0.208,1.179,0.417,1.75c0.127,0.347,0.604,0.367,0.724,0c0.166-0.514,0.214-0.902,0.18-1.433
				c-0.031-0.478-0.758-0.487-0.75,0c-0.014,0.419,0.014,0.836,0.083,1.25c0.039,0.331,0.516,0.561,0.699,0.189
				c0.259-0.525,0.496-1.044,0.705-1.59c-0.246-0.033-0.491-0.066-0.737-0.1c0.028,0.417,0.056,0.833,0.083,1.25
				c0.032,0.48,0.729,0.486,0.75,0c0.023-0.105,0.047-0.212,0.07-0.317c-0.246-0.033-0.491-0.066-0.737-0.1
				c-0.061,0.505-0.047,0.871,0.096,1.35c0.098,0.324,0.505,0.355,0.686,0.09c0.567-0.832,0.91-1.759,1.333-2.667
				c-0.233-0.063-0.466-0.126-0.699-0.189c-0.087,0.838-0.135,1.658-0.083,2.5c0.025,0.409,0.629,0.527,0.737,0.1
				c0.25-0.995,0.408-1.996,0.513-3.016c-0.25,0-0.5,0-0.75,0c-0.019,1.416-0.109,2.803,0.263,4.183c0.094,0.349,0.64,0.368,0.724,0
				c0.188-0.831,0.182-1.581,0.097-2.433c-0.048-0.479-0.709-0.485-0.75,0c-0.028,0.333-0.056,0.667-0.083,1
				c0.125-0.125,0.25-0.25,0.375-0.375c-0.028,0-0.055,0-0.083,0c-0.222,0-0.352,0.172-0.375,0.375
				c-0.083,0.361-0.083,0.722,0,1.083c0.037,0.319,0.534,0.575,0.699,0.189c0.543-1.269,0.672-2.51,0.455-3.872
				c-0.063-0.395-0.617-0.319-0.724,0c-0.204,0.607-0.253,1.117-0.263,1.766c-0.007,0.416,0.656,0.521,0.737,0.1
				c0.154-0.812,0.211-1.548,0.083-2.366c-0.062-0.392-0.621-0.323-0.724,0c-0.155,0.488-0.231,0.927-0.263,1.433
				c0.25,0,0.5,0,0.75,0c-0.003-0.452-0.023-0.885-0.083-1.333c-0.047-0.354-0.483-0.531-0.699-0.189
				c-0.214,0.34-0.453,0.66-0.667,1c0.233,0.063,0.466,0.126,0.699,0.189c0.069-0.414,0.097-0.831,0.083-1.25
				c0.007-0.436-0.609-0.494-0.737-0.1c-0.188,0.585-0.394,1.165-0.583,1.75c0.246,0.033,0.491,0.066,0.737,0.1
				c0-0.969,0.429-1.664,1.314-2.093c0.297-0.144,0.209-0.608-0.09-0.686c-0.674-0.173-1.01-0.117-1.532,0.347
				c-0.251,0.223-0.047,0.639,0.265,0.64c0.589,0.003,1.163,0.024,1.75,0.083c-0.033-0.246-0.066-0.491-0.1-0.737
				c-1.03,0.209-2.024,0.227-3.067,0.153c0.033,0.246,0.066,0.491,0.1,0.737c0.333-0.111,0.667-0.223,1-0.333
				c0.471-0.157,0.269-0.788-0.199-0.724c-0.736,0.126-1.447,0.071-2.134-0.167c0,0.241,0,0.482,0,0.724
				c0.025,0.177,0.051,0.354,0.077,0.532c0.196-0.025,0.393-0.05,0.589-0.076c-0.396-0.396-0.656-0.6-0.736-1.167
				c-0.06-0.416-0.602-0.293-0.724,0c-0.097,0.217-0.181,0.439-0.25,0.667c0.241,0,0.482,0,0.724,0
				c-0.028-0.194-0.056-0.389-0.083-0.583c-0.052-0.363-0.52-0.311-0.686-0.09c-0.23,0.253-0.461,0.505-0.691,0.757
				c0.196,0.025,0.393,0.051,0.589,0.076c-0.083-0.139-0.167-0.277-0.25-0.417c-0.188-0.314-0.706-0.19-0.699,0.189
				c0.01,0.501,0.03,0.685,0.097,1.183c0.057,0.419,0.767,0.319,0.737-0.1c-0.028-0.389-0.056-0.778-0.083-1.167
				c-0.026-0.362-0.499-0.524-0.699-0.189c-0.551,0.922-0.675,1.879-0.551,2.94c0.048,0.41,0.599,0.523,0.737,0.1
				c0.256-0.786,0.45-1.527,0.513-2.35c0.032-0.419-0.678-0.519-0.737-0.1c-0.146,1.055-0.2,2.122-0.417,3.167
				c0.241,0,0.482,0,0.724,0c-0.125-0.634-0.172-1.261-0.237-1.9c-0.041-0.404-0.616-0.53-0.737-0.1
				c-0.072,0.281-0.155,0.56-0.25,0.834c0.246,0.033,0.491,0.066,0.737,0.1c0.012-0.887,0.029-1.735-0.18-2.6
				c-0.107-0.442-0.692-0.294-0.737,0.1c-0.05,0.437-0.124,0.819-0.167,1.25c0.246-0.033,0.491-0.066,0.737-0.1
				c-0.132-0.603-0.215-1.2-0.237-1.817c-0.233,0.063-0.466,0.126-0.699,0.189c0.43,0.715,0.029,2.327-0.122,3.044
				c0.241,0,0.482,0,0.724,0c-0.203-1.05-0.163-2.088-0.153-3.15C32.463,39.1,31.713,39.1,31.708,39.583L31.708,39.583z"/>
		</g>
	</g>
	<g>
		<g>
			<path d="M40.1,39.055c-0.971-0.146-1.949,0.063-2.917-0.083c-0.033,0.246-0.066,0.491-0.1,0.737
				c0.47-0.005,1.14-0.136,1.561,0.115c0.417,0.249,0.793-0.4,0.379-0.647c-0.566-0.338-1.311-0.224-1.939-0.218
				c-0.41,0.004-0.529,0.672-0.1,0.737c0.971,0.146,1.949-0.063,2.917,0.083C40.373,39.85,40.577,39.127,40.1,39.055L40.1,39.055z"
				/>
		</g>
	</g>
	<g>
		<g>
			<path d="M39.958,39.75c0.005,1.254,0.062,2.504-0.237,3.733c0.241,0,0.482,0,0.724,0c-0.229-1.182-0.155-2.415,0.25-3.55
				c-0.229,0.03-0.457,0.06-0.686,0.09c0.123,0.261,0.293,0.489,0.417,0.75c0.109,0.231,0.422,0.224,0.589,0.076
				c0.271-0.241,0.282-0.492,0.346-0.833c0.089-0.473-0.634-0.674-0.723-0.199c-0.026,0.141-0.037,0.398-0.153,0.501
				c0.196,0.025,0.393,0.051,0.589,0.076c-0.124-0.261-0.293-0.489-0.417-0.75c-0.151-0.319-0.587-0.187-0.686,0.09
				c-0.451,1.262-0.503,2.638-0.25,3.949c0.071,0.369,0.639,0.349,0.724,0c0.314-1.295,0.269-2.61,0.263-3.933
				C40.707,39.267,39.957,39.266,39.958,39.75L39.958,39.75z"/>
		</g>
	</g>
	<g>
		<g>
			<path d="M40.625,47.5c-0.013-1.127-0.083-2.251-0.067-3.378c0.018-1.252,0.562-2.382,0.567-3.622c0.002-0.484-0.748-0.483-0.75,0
				c-0.005,1.068-0.445,2.077-0.544,3.142c-0.118,1.276,0.029,2.58,0.044,3.858C39.88,47.983,40.63,47.983,40.625,47.5L40.625,47.5z
				"/>
		</g>
	</g>
	<g>
		<g>
			<path d="M41.542,41.083c-0.049,2.156-0.751,4.104-1.782,5.978c-0.233,0.424,0.415,0.803,0.647,0.379
				c1.092-1.984,1.833-4.075,1.885-6.356C42.303,40.599,41.553,40.6,41.542,41.083L41.542,41.083z"/>
		</g>
	</g>
	<g>
		<g>
			<path d="M40.189,48.009c-1.723-1.154-5.115-1.094-6.879-0.083c-0.419,0.241-0.042,0.889,0.379,0.648
				c1.526-0.875,4.633-0.914,6.121,0.083C40.214,48.927,40.589,48.277,40.189,48.009L40.189,48.009z"/>
		</g>
	</g>
	<g>
		<g>
			<path d="M32.349,49.183c1.617-1.68,5.558-1.576,7.635-0.988c0.466,0.132,0.664-0.592,0.199-0.723
				c-2.341-0.663-6.537-0.719-8.365,1.18C31.483,49,32.013,49.531,32.349,49.183L32.349,49.183z"/>
		</g>
	</g>
	<g>
		<g>
			<path d="M41.542,40c-0.053,1.316-0.793,2.489-1.154,3.733c0.241,0,0.482,0,0.723,0c-0.136-0.739-0.077-1.486-0.069-2.233
				c-0.246,0.033-0.491,0.066-0.737,0.1c0.12,0.563-0.034,1.048-0.295,1.544c-0.225,0.428,0.422,0.807,0.647,0.379
				c0.358-0.682,0.533-1.358,0.371-2.122c-0.089-0.423-0.732-0.314-0.736,0.1c-0.008,0.818-0.053,1.623,0.096,2.433
				c0.07,0.381,0.626,0.336,0.723,0c0.383-1.32,1.124-2.532,1.181-3.933C42.312,39.516,41.562,39.518,41.542,40L41.542,40z"/>
		</g>
	</g>
	<g>
		<g>
			<path d="M31.542,39.333c0.002,1.233,0.283,2.389,0.529,3.592c0.347,1.699,0.151,3.52,0.138,5.241
				c-0.004,0.483,0.746,0.483,0.75,0c0.011-1.391,0.06-2.777,0-4.167c-0.068-1.582-0.663-3.072-0.667-4.667
				C32.291,38.85,31.541,38.85,31.542,39.333L31.542,39.333z"/>
		</g>
	</g>
	<g>
		<g>
			<path d="M37.176,40.811c-0.366,0.846-0.99,1.544-1.288,2.423c-0.147,0.434,0.451,0.605,0.686,0.289
				c0.706-0.951,0.701-2.396-0.362-3.088c-1.07-0.697-2.18,0.617-2.345,1.587c-0.128,0.755,0.424,1.447,1.218,1.313
				c1.095-0.186,1.383-1.49,1.375-2.417c-0.246,0.033-0.491,0.066-0.737,0.1c0.079,0.301,0.104,0.611,0.167,0.916
				c0.098,0.474,0.821,0.272,0.724-0.199c-0.063-0.305-0.088-0.615-0.167-0.917c-0.107-0.411-0.741-0.324-0.737,0.1
				c0.005,0.557-0.051,1.288-0.578,1.617c-0.303,0.188-0.542-0.006-0.536-0.327c0.01-0.541,0.644-1.431,1.238-1.124
				c0.78,0.402,0.493,1.522,0.093,2.062c0.229,0.097,0.457,0.192,0.686,0.289c0.275-0.812,0.873-1.46,1.212-2.243
				C38.014,40.75,37.368,40.368,37.176,40.811L37.176,40.811z"/>
		</g>
	</g>
	<g>
		<g>
			<path d="M36.792,41.25c0.009,0.91,0.272,2.282-0.648,2.843c-1.165,0.712-0.641-1.567-0.437-1.996
				c0.237-0.499,0.942-1.375,1.556-0.843c0.702,0.61-0.406,1.485-0.869,1.755c-0.417,0.244-0.04,0.892,0.379,0.648
				c0.992-0.579,1.984-1.781,1.076-2.877c-0.923-1.113-2.313,0.039-2.789,0.938c-0.411,0.774-0.917,3.266,0.618,3.254
				c1.996-0.015,1.877-2.337,1.864-3.722C37.537,40.767,36.787,40.766,36.792,41.25L36.792,41.25z"/>
		</g>
	</g>
	<g>
		<g>
			<path d="M34.055,40.933c0.353,1.308,0.407,2.852,1.755,3.558c0.428,0.224,0.807-0.424,0.379-0.648
				c-1.122-0.587-1.119-2.026-1.411-3.109C34.653,40.268,33.929,40.465,34.055,40.933L34.055,40.933z"/>
		</g>
	</g>
	<g>
		<g>
			<path d="M41.676,38.644c-1.801,2.799-0.872,5.988-1.371,9.089c-0.076,0.473,0.647,0.676,0.723,0.199
				c0.481-2.993-0.437-6.218,1.296-8.91C42.586,38.615,41.937,38.239,41.676,38.644L41.676,38.644z"/>
		</g>
	</g>
	<g>
		<g>
			<path d="M32.067,39.278c3.217,0.891,6.546,0.695,9.85,0.68c0.483-0.002,0.483-0.752,0-0.75c-3.234,0.015-6.499,0.219-9.65-0.654
				C31.8,38.426,31.602,39.149,32.067,39.278L32.067,39.278z"/>
		</g>
	</g>
	<g>
		<g>
			<path d="M32.273,49.824c2.386-1.317,5.167-1.736,7.705-0.583c0.437,0.198,0.818-0.448,0.379-0.648
				c-2.794-1.269-5.819-0.875-8.462,0.583C31.471,49.41,31.849,50.058,32.273,49.824L32.273,49.824z"/>
		</g>
	</g>
	<g>
		<g>
			<path d="M42.292,38.75c-0.413,3.49-1.09,6.882-2.154,10.233c-0.146,0.462,0.578,0.658,0.724,0.199
				c1.083-3.415,1.759-6.879,2.18-10.433C43.099,38.271,42.349,38.276,42.292,38.75L42.292,38.75z"/>
		</g>
	</g>
	<g>
		<g>
			<path d="M42.625,38.75c-0.168,1.812-0.315,3.54-0.886,5.278c-0.544,1.658-1.334,3.233-1.934,4.872
				c-0.167,0.455,0.559,0.649,0.724,0.199c0.687-1.876,1.543-3.683,2.167-5.583c0.503-1.532,0.532-3.176,0.68-4.767
				C43.42,38.269,42.669,38.272,42.625,38.75L42.625,38.75z"/>
		</g>
	</g>
	<g>
		<g>
			<path d="M42.625,38.5c-0.02,1.396-0.348,2.714-0.652,4.067c-0.106,0.471,0.616,0.671,0.723,0.199
				c0.32-1.419,0.659-2.804,0.68-4.267C43.382,38.016,42.632,38.017,42.625,38.5L42.625,38.5z"/>
		</g>
	</g>
	<g>
		<g>
			<path d="M31.292,38.25c0.024,3.642,0.309,7.275,0.333,10.917c0.003,0.483,0.753,0.483,0.75,0
				c-0.024-3.642-0.309-7.275-0.333-10.917C32.039,37.767,31.289,37.766,31.292,38.25L31.292,38.25z"/>
		</g>
	</g>
	<g>
		<g>
			<path d="M31.484,38.362c3.815,0.699,7.666,0.297,11.516,0.263c0.483-0.004,0.483-0.754,0-0.75
				c-3.778,0.033-7.572,0.449-11.317-0.237C31.21,37.552,31.008,38.274,31.484,38.362L31.484,38.362z"/>
		</g>
	</g>
	<g>
		<g>
			<path d="M31.984,38.862c3.559,0.785,7.095-0.145,10.683,0.013c0.483,0.021,0.481-0.729,0-0.75
				c-3.516-0.155-6.996,0.783-10.484,0.013C31.712,38.034,31.512,38.757,31.984,38.862L31.984,38.862z"/>
		</g>
	</g>
	<g>
		<g>
			<path d="M41.625,38.5c-2.334-0.017-4.654-0.203-6.975,0.138c-0.477,0.07-0.273,0.793,0.199,0.724
				c2.249-0.331,4.514-0.128,6.775-0.112C42.108,39.253,42.108,38.503,41.625,38.5L41.625,38.5z"/>
		</g>
	</g>
	<g>
		<g>
			<path d="M33.875,41.125c1.935,0,1.935-3,0-3S31.94,41.125,33.875,41.125L33.875,41.125z"/>
		</g>
	</g>
	
		<image style="display:none;overflow:visible;" width="58" height="69" xlink:href="../../Images/mund.png"  transform="matrix(0.2721 0 0 0.2721 30.2339 36.5469)">
	</image>
</g>
</svg>
