<?xml version="1.0" encoding="iso-8859-1"?>
<!-- Generator: Adobe Illustrator 16.0.0, SVG Export Plug-In . SVG Version: 6.00 Build 0)  -->
<!DOCTYPE svg PUBLIC "-//W3C//DTD SVG 1.1//EN" "http://www.w3.org/Graphics/SVG/1.1/DTD/svg11.dtd">
<svg version="1.1" xmlns="http://www.w3.org/2000/svg" xmlns:xlink="http://www.w3.org/1999/xlink" x="0px" y="0px" width="80px"
	 height="80px" viewBox="0 0 80 80" style="enable-background:new 0 0 80 80;" xml:space="preserve">
<g id="cookie">
	<circle id="innen" style="fill:#C69C6D;" cx="38.75" cy="34.875" r="33.875"/>
	<g id="rand">
		<g>
			<path style="fill:#C69C6D;" d="M35.125,1.5c3-0.5,5.5,0.75,8.5,1c3.625,0.375,6.75,1.625,9.875,3.375
				c3.125,1.625,6.375,2.875,9.25,5.25c2.75,2.25,3.875,6,5.625,9.125c1.625,2.75,3.5,4.875,3.75,8.125c0.125,2.25,0,4.375,0,6.5
				c0,2.75,0.625,5-0.25,7.625c-1.125,3.375-1.875,6.75-3.625,10c-3.125,6.125-9.375,10.625-15.875,13.125
				C46.875,67.625,42,70,36,69.375c-6.75-0.75-12.75-4-18.5-7.375c-3.375-2-4.75-5.25-7.875-7.5c-3.25-2.25-2.5-6.125-3-9.75
				c-0.75-5-2.5-10-1.125-15.125C7.25,23,9.75,17.375,14.125,12.25c1.875-2.25,3-3.5,5.375-5c2-1.25,4-2.875,6.125-3.75
				c1.75-0.875,3.875-0.75,5.875-1c2.625-0.5,5-1.25,7.625-0.875"/>
			<g>
				<path d="M35.125,3c8.249-0.529,15.907,3.171,23.004,6.869c4.27,2.224,6.22,5.599,8.232,9.767
					c2.093,4.334,4.329,6.88,4.311,12.036c-0.015,4.125,0.489,8.13-0.781,12.116c-1.457,4.573-2.92,8.787-6.078,12.494
					c-5.552,6.517-15.996,10.641-24.333,11.635C31.732,68.84,20.75,63.755,15.41,58.28c-2.562-2.626-6.53-5.76-6.973-9.445
					c-0.452-3.768-0.924-7.411-1.596-11.161c-1.654-9.23,3.628-18.799,9.396-25.603c5.415-6.389,14.673-9.481,22.888-8.946
					c1.933,0.126,1.92-2.875,0-3C20.372-1.098,3.371,15.927,3.514,34.713c0.039,5.072,1.475,10.386,2.08,15.428
					c0.477,3.976,3.467,5.519,5.946,8.255c6.487,7.162,16.518,12.026,26.229,12.58c8.688,0.496,19.549-5.028,26.029-10.465
					c3.463-2.905,5.693-6.769,7.367-10.899c2.324-5.734,2.412-10.318,2.479-16.332c0.055-4.977-0.445-8.222-3.147-12.456
					c-2.307-3.612-3.442-8.297-6.988-10.994C55.905,4.049,44.802-0.62,35.125,0C33.204,0.123,33.192,3.124,35.125,3L35.125,3z"/>
			</g>
		</g>
	</g>
	<g id="schatten">
		<g>
			<g>
				<path style="fill:#A67C52;" d="M62.288,18.016c2.771,5.047,6.161,9.695,6.616,15.671c0.437,5.725-1.688,11.46-4.422,16.373
					c-2.875,5.17-7.604,9.832-13.205,11.91c-1.559,0.578-3.241,0.619-4.784,1.296c-0.551,0.268-1.1,0.538-1.647,0.811
					c-0.553,0.273-2.79,0.615-1.922,1.138c-1.662-0.999-3.169,1.595-1.514,2.59c1.018,0.612,2.059,0.186,3.075-0.268
					c2.571-1.146,4.827-2.028,7.589-2.674c5.956-1.392,10.969-7.198,14.212-12.005c3.48-5.159,5.375-11.421,5.641-17.599
					c0.306-7.121-3.792-12.828-7.049-18.757C63.947,14.806,61.356,16.32,62.288,18.016L62.288,18.016z"/>
			</g>
		</g>
		<g>
			<g>
				<path style="fill:#A67C52;" d="M60.622,18.6c1.923,4.36,4.043,8.435,4.296,13.279c0.271,5.201-1.302,10.091-3.958,14.496
					c-4.724,7.837-12.852,10.672-19.021,16.824c-1.371,1.367,0.75,3.488,2.121,2.121c3.503-3.493,8.251-5.593,12.022-8.787
					c3.802-3.22,6.747-7.079,9.065-11.479c5.066-9.614,2.117-18.779-1.937-27.969C62.433,15.319,59.849,16.847,60.622,18.6
					L60.622,18.6z"/>
			</g>
		</g>
		<g>
			<g>
				<path style="fill:#A67C52;" d="M65.25,25.343c0.146,3.334,0.966,6.502,0.697,9.861c-0.412,5.17-2.722,9.617-5.883,13.63
					c-3.868,4.91-9.657,8.158-14.042,12.448c-1.385,1.354,0.738,3.475,2.121,2.121c2.557-2.501,5.624-4.568,8.238-7.123
					c2.82-2.756,5.636-4.926,7.966-8.203c2.321-3.267,3.654-6.897,4.344-10.818c0.733-4.167-0.262-7.793-0.441-11.916
					C68.166,23.416,65.166,23.408,65.25,25.343L65.25,25.343z"/>
			</g>
		</g>
		<g>
			<g>
				<path style="fill:#A67C52;" d="M66.833,34.343c0.367,6.056-1.099,11.377-5.394,15.939c-4.004,4.253-9.763,6.883-14.363,10.433
					c0.605,0.785,1.212,1.57,1.817,2.355c0.083-0.083,0.167-0.167,0.25-0.25c1.369-1.369-0.752-3.49-2.121-2.121
					c-0.083,0.083-0.167,0.167-0.25,0.25c-1.172,1.171,0.439,3.419,1.817,2.355c5.155-3.978,12.153-6.945,16.163-12.223
					c1.904-2.506,3.229-5.259,4.423-8.16c1.246-3.025,0.851-5.388,0.657-8.579C69.717,32.421,66.716,32.41,66.833,34.343
					L66.833,34.343z"/>
			</g>
		</g>
		<g>
			<g>
				<path style="fill:#A67C52;" d="M59.887,52.694c-1.427,4.437-6.7,6.836-10.785,8.119c-1.84,0.577-1.054,3.474,0.797,2.893
					c5.194-1.632,11.097-4.666,12.881-10.215C63.373,51.645,60.477,50.86,59.887,52.694L59.887,52.694z"/>
			</g>
		</g>
		<g>
			<g>
				<path style="fill:#A67C52;" d="M42.884,63.619c-1.58,0.516-2.115,1.839-2.865,3.178c-0.473,0.846,0.823,1.602,1.295,0.758
					c0.514-0.918,0.87-2.131,1.968-2.488C44.198,64.768,43.806,63.318,42.884,63.619L42.884,63.619z"/>
			</g>
		</g>
		<g>
			<g>
				<path style="fill:#A67C52;" d="M44.468,61.952c-2.567,0.389-4.347,2.859-5.449,5.012c-0.44,0.859,0.854,1.619,1.295,0.758
					c0.938-1.833,2.356-3.99,4.552-4.322C45.82,63.255,45.413,61.81,44.468,61.952L44.468,61.952z"/>
			</g>
		</g>
		<g>
			<g>
				<path style="fill:#A67C52;" d="M64.282,16.203c-0.57-0.142-0.731-0.835-1.067-1.262c-0.524-0.666-1.325-0.979-1.935-1.545
					c-0.707-0.657-1.771,0.401-1.061,1.061c0.63,0.585,1.537,0.918,1.992,1.665c0.436,0.716,0.804,1.313,1.672,1.528
					C64.822,17.882,65.221,16.436,64.282,16.203L64.282,16.203z"/>
			</g>
		</g>
		<g>
			<g>
				<path style="fill:#A67C52;" d="M62.73,19.048c-0.411-0.641-1.144-1.166-1.397-1.888c-0.307-0.87-0.245-1.971-0.302-2.887
					c-0.095-1.535-0.544-2.759-1.819-3.661c-0.617-0.437-1.428,0.415-1.026,1.026c1.276,1.946,3.609,2.982,4.424,5.238
					c0.175-0.307,0.35-0.615,0.524-0.922c-0.928,0.24-1.29-0.583-1.493-1.226c-0.291-0.919-1.739-0.526-1.447,0.398
					c0.49,1.549,1.636,2.715,3.339,2.274c0.373-0.097,0.661-0.542,0.524-0.922c-0.903-2.498-3.19-3.485-4.576-5.596
					c-0.342,0.342-0.684,0.684-1.026,1.026c1.384,0.979,1.101,3.064,1.244,4.561c0.153,1.596,0.934,2.085,1.737,3.337
					C61.956,20.616,63.255,19.864,62.73,19.048L62.73,19.048z"/>
			</g>
		</g>
		<g>
			<g>
				<path style="fill:#A67C52;" d="M64.897,17.214c-1.322-2.708-2.931-5.191-5.686-6.603c-0.859-0.44-1.618,0.854-0.758,1.295
					c2.536,1.3,3.936,3.581,5.148,6.064C64.027,18.84,65.32,18.08,64.897,17.214L64.897,17.214z"/>
			</g>
		</g>
		<g>
			<g>
				<path style="fill:#A67C52;" d="M43.468,65.952c-1.06,0.377-2.081,0.692-3.218,0.641c-0.967-0.044-0.963,1.456,0,1.5
					c1.266,0.058,2.436-0.274,3.616-0.693C44.771,67.077,44.382,65.628,43.468,65.952L43.468,65.952z"/>
			</g>
		</g>
	</g>
	<g id="augen">
		<g id="augeL">
			<path d="M28.624,27.413c-0.46,5.759-4.447,10.112-8.904,9.725c-4.459-0.388-7.701-5.37-7.242-11.129
				c0.461-5.759,4.447-10.112,8.905-9.725C25.841,16.67,29.084,21.653,28.624,27.413z"/>
			<g id="wei&#xDF;Gro&#xDF;">
				<path style="fill:#FFFFFF;" d="M20.755,20.628c0.24,1.28-0.88,2.694-2.503,3.161c-1.622,0.467-3.131-0.192-3.371-1.472
					c-0.24-1.279,0.88-2.694,2.503-3.16C19.005,18.689,20.515,19.349,20.755,20.628z"/>
			</g>
			<g id="weisKlein">
				<path style="fill:#FFFFFF;" d="M21.124,25.575c-0.059,0.75-0.745,1.305-1.53,1.238c-0.787-0.067-1.376-0.732-1.316-1.483
					c0.059-0.75,0.744-1.305,1.53-1.237C20.594,24.16,21.182,24.824,21.124,25.575z"/>
			</g>
		</g>
		<g id="augeR">
			<path d="M52.118,28.338c-0.459,5.742-4.332,10.09-8.648,9.715c-4.318-0.375-7.449-5.334-6.987-11.077
				c0.459-5.741,4.33-10.089,8.647-9.714C49.448,17.638,52.576,22.596,52.118,28.338z"/>
			<path style="fill:#FFFFFF;" d="M44.756,21.628c0.24,1.28-0.881,2.694-2.504,3.161c-1.621,0.467-3.131-0.192-3.371-1.472
				s0.881-2.694,2.504-3.16C43.006,19.689,44.516,20.349,44.756,21.628z"/>
			<path style="fill:#FFFFFF;" d="M45.64,26.329c-0.051,0.648-0.684,1.125-1.408,1.063c-0.728-0.062-1.276-0.64-1.225-1.289
				c0.051-0.648,0.681-1.125,1.408-1.063C45.142,25.102,45.688,25.68,45.64,26.329z"/>
		</g>
	</g>
	<g id="schoko">
		<g id="drop1">
			<g>
				<g>
					<path style="fill:#F4ECCE;" d="M59.352,25.304c-3.405,0.808-6.242,4.135-6.102,7.696c0.114,2.915,2.59,4.864,5.424,4.417
						c2.467-0.388,3.995-2.147,4.895-4.338c0.785-1.913,1.418-4.148,1.042-6.22c-0.438-2.406-3.267-2.517-4.962-1.401
						c-1.782,1.173-2.866,3.683-3.594,5.595c-0.682,1.792-0.769,4.581,1.813,4.64c2.74,0.063,4.376-3.861,5.135-5.954
						c0.023-0.072,0.046-0.143,0.069-0.214c0.598-1.846-2.3-2.63-2.893-0.798c-0.336,1.036-1.216,3.529-2.327,3.953
						c0.826-0.315,0.587,1.327,0.752,0.357c0.108-0.643,0.358-1.273,0.626-1.864c0.502-1.109,1.126-2.281,1.992-3.15
						c0.08-0.08,0.48-0.288,0.857-0.296c-0.559,0.012-0.352-0.457-0.344,0.352c0.02,1.919-0.831,5.005-2.574,6.054
						c-1.09,0.656-2.451,0.492-2.844-0.81c-0.696-2.309,1.818-4.646,3.831-5.125C62.03,27.75,61.232,24.857,59.352,25.304
						L59.352,25.304z"/>
				</g>
			</g>
		</g>
		<g id="drop2">
			<g>
				<g>
					<path style="fill:#F4ECCE;" d="M31.118,53.83c-2.181,1.151-2.578,3.642-2.162,5.867c0.472,2.529,2.401,4.312,4.98,4.279
						c2.947-0.036,5.354-2.381,6.389-4.958c0.529-1.315,0.432-2.95-0.265-4.174c-0.675-1.186-2.101-1.515-3.343-1.637
						c-2.251-0.22-4.963,0.074-5.735,2.517c-0.698,2.208-0.172,6.305,2.944,5.984c2.456-0.252,4.775-3.433,3.025-5.59
						c-0.62-0.764-1.971-0.851-2.78-0.392c-1.029,0.585-1.407,1.637-1.422,2.772c-0.02,1.436,1.594,1.814,2.561,1.061
						c0.625-0.487,1.206-1.215,1.963-1.489c1.805-0.652,1.026-3.552-0.798-2.893c-1.326,0.479-2.197,1.41-3.287,2.261
						c0.854,0.354,1.707,0.707,2.561,1.061c0.006-0.46-0.479,0.091-0.919-0.26c-0.065-0.588-0.157-0.708-0.272-0.359
						c-0.195,0.28-0.43,0.524-0.705,0.731c0.003,0.214-0.007,0.246-0.029,0.097c-0.091-0.248-0.125-0.505-0.103-0.769
						c-0.013-0.438-0.003-1.12,0.182-1.533c0.097-0.218,1.6-0.2,2.046-0.214c1.326-0.042,1.921,0.2,1.604,1.64
						c-0.348,1.584-3.213,4.319-4.867,2.814c-1.024-0.933-1.464-3.483-0.055-4.228C34.343,55.517,32.827,52.928,31.118,53.83
						L31.118,53.83z"/>
				</g>
			</g>
		</g>
		<g id="drop3">
			<g>
				<g>
					<path style="fill:#F4ECCE;" d="M33.132,15.545c3.162-1.484,6.509-0.963,9.136-3.599c1.782-1.788,2.375-5.079-0.619-6.018
						c-2.358-0.74-5.075,0.678-7.062,1.823c-1.85,1.065-4.472,2.829-4.908,5.1c-0.153,0.795,0.211,1.625,1.047,1.845
						c1.823,0.479,3.34,0.088,5.008-0.707c1.861-0.887,3.579-1.734,5.54-2.418c1.814-0.633,1.034-3.532-0.797-2.893
						c-1.35,0.471-2.698,0.908-4.012,1.476c-1.649,0.713-2.998,2.159-4.94,1.649c0.349,0.615,0.698,1.23,1.047,1.845
						c0.234-1.216,1.788-2.164,2.726-2.803c1.371-0.934,2.891-1.684,4.511-2.058c0.442-0.102,1.173-0.278,0.895,0.291
						c-0.382,0.782-1.188,1.398-1.909,1.845c-1.017,0.63-2.553,0.696-3.704,0.909c-1.222,0.226-2.35,0.595-3.472,1.122
						C29.868,13.776,31.392,16.362,33.132,15.545L33.132,15.545z"/>
				</g>
			</g>
			<g>
				<g>
					<path style="fill:#F4ECCE;" d="M38.868,7.08c-1.244,0.959-2.663,1.596-4.142,2.099c-1.821,0.619-1.039,3.517,0.798,2.893
						c1.71-0.581,3.418-1.292,4.858-2.401c0.646-0.498,0.991-1.279,0.539-2.052C40.546,6.98,39.518,6.579,38.868,7.08L38.868,7.08z"
						/>
				</g>
			</g>
			<g>
				<g>
					<path style="fill:#F4ECCE;" d="M31.314,12.939c-0.142,0.125-0.146,0.137-0.014,0.037c-0.155,0.089-0.131,0.087,0.072-0.005
						c0.489-0.096,0.888,0.07,1.195,0.498c0.186,0.261,0.033,0.045,0.004-0.117c-0.144-0.806-1.112-1.249-1.845-1.047
						c-0.842,0.231-1.191,1.041-1.047,1.845c0.149,0.839,0.653,1.432,1.447,1.728c0.838,0.313,1.736-0.269,2.31-0.816
						c0.592-0.563,0.567-1.554,0-2.121C32.847,12.351,31.906,12.376,31.314,12.939L31.314,12.939z"/>
				</g>
			</g>
		</g>
		<g id="drop4">
			<g>
				<g>
					<path style="fill:#F4ECCE;" d="M15.5,50.75c3.884-0.007,11.79-0.396,10.696-6.148c-0.09-0.473-0.576-0.957-1.047-1.048
						c-3.471-0.67-11.422,0.192-11.024,5.196c0.07,0.877,0.634,1.417,1.5,1.5c2.359,0.226,4.202-1.12,6.399-1.679
						c1.874-0.477,1.078-3.37-0.798-2.893c-1.896,0.482-3.583,1.765-5.601,1.571c0.5,0.5,1,1,1.5,1.5
						c-0.191-2.403,5.659-2.606,7.226-2.304c-0.349-0.349-0.698-0.698-1.047-1.048c0.467,2.457-6.36,2.349-7.804,2.352
						C13.565,47.753,13.565,50.753,15.5,50.75L15.5,50.75z"/>
				</g>
			</g>
		</g>
		<g id="drop5">
			<g>
				<g>
					<path style="fill:#F4ECCE;" d="M46.525,46.869c2.165,0.707,4.557,1.829,6.885,1.486c1.316-0.194,2.053-1.296,1.873-2.579
						c-0.204-1.452-1.971-2.066-3.144-2.505c-2.428-0.908-7.053-2.124-8.019,1.359c-0.559,2.019,1.524,3.437,3.092,4.077
						c2.262,0.925,4.506,1.247,6.751,0.111c1.727-0.873,0.208-3.461-1.514-2.59c-1.191,0.602-2.377,0.324-3.583-0.078
						c-0.562-0.188-1.16-0.419-1.624-0.797c-0.281-0.23-0.306,0.079-0.065-0.008c1.252-0.449,3.498,0.508,4.624,0.994
						c0.219,0.095,0.515,0.211,0.7,0.362c-0.241-0.352-0.203-0.722,0.115-1.111c0.295-0.373,0.331-0.179,0.211-0.17
						c-0.657,0.046-1.329-0.149-1.959-0.308c-1.207-0.304-2.365-0.752-3.547-1.138C45.479,43.374,44.694,46.271,46.525,46.869
						L46.525,46.869z"/>
				</g>
			</g>
		</g>
	</g>
</g>
<g id="beine_1_">
	<g id="beinL">
		<g>
			<path style="fill:#93278F;" d="M32.25,73.833c-0.083-3.333-4.917-4.25-7.333-4.333c-2.667-0.083-5.25-0.083-7.917,0.333
				c-2.333,0.334-4.583,1.417-5.833,3.5c-0.667,1-1.583,2.25-1.25,3.584c0.5,2.25,4.083,2.333,5.917,2.583
				C18.5,80,21.25,80.167,24,80.167c1.75,0,4,0.25,5.75-0.25c2.167-0.584,5.5-4.25,2.25-5.834"/>
			<g>
				<path d="M33.696,73.435c-1.104-6.393-10.446-5.653-15.105-5.304c-4.856,0.364-12.203,4.376-9.647,10.29
					c0.764,1.767,3.672,2.199,5.262,2.387c4.73,0.557,9.374,1.061,14.154,0.859c4.507-0.189,9.012-5.633,4.397-8.879
					c-1.586-1.116-3.083,1.486-1.514,2.59c2.936,2.065-4.437,3.354-4.368,3.352c-1.492,0.063-3.031-0.064-4.524-0.084
					c-3.155-0.041-6.49-0.431-9.577-1.134c-3.746-0.852,1.438-5.14,1.66-5.289c1.996-1.344,5.006-1.188,7.312-1.261
					c2.681-0.087,8.422-0.413,9.058,3.27C31.132,76.136,34.023,75.326,33.696,73.435L33.696,73.435z"/>
			</g>
		</g>
	</g>
	<g id="beinR">
		<g>
			<path style="fill:#93278F;" d="M44.563,72.063c4-3.375,10.719-2.469,15.719-2.219c3,0.125,7.672,4.266,5.422,7.641
				c-2,3-10.539,2.383-13.664,2.008C48.289,79.117,44,78,44,73.5c0-0.125,0-0.5,0-0.5"/>
			<g>
				<path d="M45.507,73.42c3.076-2.266,6.593-2.395,10.283-2.299c1.655,0.043,3.402,0.081,5.038,0.33
					c2.688,0.409,5.43,4.938,2.01,6.233c-4.199,1.589-16.963,1.582-16.963-4.56c0-1.935-3-1.935-3,0
					c0,5.579,4.528,7.298,9.375,7.875c3.766,0.448,11.239,1.434,14.114-1.918c3.152-3.676,0.35-8.779-3.844-10.217
					c-5.367-1.841-13.877-1.462-18.527,1.965C42.453,71.964,43.947,74.569,45.507,73.42L45.507,73.42z"/>
			</g>
		</g>
	</g>
</g>
</svg>
