<?xml version="1.0" encoding="UTF-8" standalone="no"?>
<!-- Generator: Adobe Illustrator 16.0.0, SVG Export Plug-In . SVG Version: 6.00 Build 0)  -->

<svg
   xmlns:dc="http://purl.org/dc/elements/1.1/"
   xmlns:cc="http://creativecommons.org/ns#"
   xmlns:rdf="http://www.w3.org/1999/02/22-rdf-syntax-ns#"
   xmlns:svg="http://www.w3.org/2000/svg"
   xmlns="http://www.w3.org/2000/svg"
   xmlns:sodipodi="http://sodipodi.sourceforge.net/DTD/sodipodi-0.dtd"
   xmlns:inkscape="http://www.inkscape.org/namespaces/inkscape"
   version="1.1"
   x="0px"
   y="0px"
   width="70.134804"
   height="81.76786"
   viewBox="0 0 70.134804 81.76786"
   xml:space="preserve"
   id="svg5439"
   sodipodi:docname="CookieB_left.svg"
   inkscape:export-filename="/home/murks/gamejam_2017/CookieB_left_300.png"
   inkscape:export-xdpi="96"
   inkscape:export-ydpi="96"
   inkscape:version="0.92.1 r"><metadata
     id="metadata5445"><rdf:RDF><cc:Work
         rdf:about=""><dc:format>image/svg+xml</dc:format><dc:type
           rdf:resource="http://purl.org/dc/dcmitype/StillImage" /></cc:Work></rdf:RDF></metadata><defs
     id="defs5443" /><sodipodi:namedview
     pagecolor="#ffffff"
     bordercolor="#666666"
     borderopacity="1"
     objecttolerance="10"
     gridtolerance="10"
     guidetolerance="10"
     inkscape:pageopacity="0"
     inkscape:pageshadow="2"
     inkscape:window-width="679"
     inkscape:window-height="725"
     id="namedview5441"
     showgrid="false"
     inkscape:zoom="2.95"
     inkscape:cx="-14.530053"
     inkscape:cy="41.712478"
     inkscape:window-x="0"
     inkscape:window-y="20"
     inkscape:window-maximized="0"
     inkscape:current-layer="svg5439" /><g
     id="g6080"
     transform="matrix(4.2774769,0,0,4.2774769,-129.95982,-133.75925)"><g
       id="cookie"><circle
         r="33.875"
         cy="34.875"
         cx="38.75"
         style="fill:#c69c6d"
         id="innen" /><g
         id="rand"><g
           id="g5284"><path
             id="path5278"
             d="m 35.125,1.5 c 3,-0.5 5.5,0.75 8.5,1 3.625,0.375 6.75,1.625 9.875,3.375 3.125,1.625 6.375,2.875 9.25,5.25 2.75,2.25 3.875,6 5.625,9.125 1.625,2.75 3.5,4.875 3.75,8.125 0.125,2.25 0,4.375 0,6.5 0,2.75 0.625,5 -0.25,7.625 C 70.75,45.875 70,49.25 68.25,52.5 65.125,58.625 58.875,63.125 52.375,65.625 46.875,67.625 42,70 36,69.375 29.25,68.625 23.25,65.375 17.5,62 14.125,60 12.75,56.75 9.625,54.5 c -3.25,-2.25 -2.5,-6.125 -3,-9.75 -0.75,-5 -2.5,-10 -1.125,-15.125 C 7.25,23 9.75,17.375 14.125,12.25 16,10 17.125,8.75 19.5,7.25 21.5,6 23.5,4.375 25.625,3.5 27.375,2.625 29.5,2.75 31.5,2.5 34.125,2 36.5,1.25 39.125,1.625"
             style="fill:#c69c6d"
             inkscape:connector-curvature="0" /><g
             id="g5282"><path
               id="path5280"
               d="m 35.125,3 c 8.249,-0.529 15.907,3.171 23.004,6.869 4.27,2.224 6.22,5.599 8.232,9.767 2.093,4.334 4.329,6.88 4.311,12.036 -0.015,4.125 0.489,8.13 -0.781,12.116 -1.457,4.573 -2.92,8.787 -6.078,12.494 C 58.261,62.799 47.817,66.923 39.48,67.917 31.732,68.84 20.75,63.755 15.41,58.28 12.848,55.654 8.88,52.52 8.437,48.835 7.985,45.067 7.513,41.424 6.841,37.674 5.187,28.444 10.469,18.875 16.237,12.071 21.652,5.682 30.91,2.59 39.125,3.125 c 1.933,0.126 1.92,-2.875 0,-3 C 20.372,-1.098 3.371,15.927 3.514,34.713 c 0.039,5.072 1.475,10.386 2.08,15.428 0.477,3.976 3.467,5.519 5.946,8.255 6.487,7.162 16.518,12.026 26.229,12.58 8.688,0.496 19.549,-5.028 26.029,-10.465 3.463,-2.905 5.693,-6.769 7.367,-10.899 C 73.489,43.878 73.577,39.294 73.644,33.28 73.699,28.303 73.199,25.058 70.497,20.824 68.19,17.212 67.055,12.527 63.509,9.83 55.905,4.049 44.802,-0.62 35.125,0 c -1.921,0.123 -1.933,3.124 0,3 z"
               inkscape:connector-curvature="0" /></g></g></g><g
         id="schatten"><g
           id="g5291"><g
             id="g5289"><path
               id="path5287"
               d="m 62.288,18.016 c 2.771,5.047 6.161,9.695 6.616,15.671 0.437,5.725 -1.688,11.46 -4.422,16.373 -2.875,5.17 -7.604,9.832 -13.205,11.91 -1.559,0.578 -3.241,0.619 -4.784,1.296 -0.551,0.268 -1.1,0.538 -1.647,0.811 -0.553,0.273 -2.79,0.615 -1.922,1.138 -1.662,-0.999 -3.169,1.595 -1.514,2.59 1.018,0.612 2.059,0.186 3.075,-0.268 2.571,-1.146 4.827,-2.028 7.589,-2.674 5.956,-1.392 10.969,-7.198 14.212,-12.005 3.48,-5.159 5.375,-11.421 5.641,-17.599 0.306,-7.121 -3.792,-12.828 -7.049,-18.757 -0.931,-1.696 -3.522,-0.182 -2.59,1.514 z"
               style="fill:#a67c52"
               inkscape:connector-curvature="0" /></g></g><g
           id="g5297"><g
             id="g5295"><path
               id="path5293"
               d="m 60.622,18.6 c 1.923,4.36 4.043,8.435 4.296,13.279 0.271,5.201 -1.302,10.091 -3.958,14.496 -4.724,7.837 -12.852,10.672 -19.021,16.824 -1.371,1.367 0.75,3.488 2.121,2.121 3.503,-3.493 8.251,-5.593 12.022,-8.787 3.802,-3.22 6.747,-7.079 9.065,-11.479 C 70.213,35.44 67.264,26.275 63.21,17.085 62.433,15.319 59.849,16.847 60.622,18.6 Z"
               style="fill:#a67c52"
               inkscape:connector-curvature="0" /></g></g><g
           id="g5303"><g
             id="g5301"><path
               id="path5299"
               d="m 65.25,25.343 c 0.146,3.334 0.966,6.502 0.697,9.861 -0.412,5.17 -2.722,9.617 -5.883,13.63 -3.868,4.91 -9.657,8.158 -14.042,12.448 -1.385,1.354 0.738,3.475 2.121,2.121 2.557,-2.501 5.624,-4.568 8.238,-7.123 2.82,-2.756 5.636,-4.926 7.966,-8.203 2.321,-3.267 3.654,-6.897 4.344,-10.818 0.733,-4.167 -0.262,-7.793 -0.441,-11.916 -0.084,-1.927 -3.084,-1.935 -3,0 z"
               style="fill:#a67c52"
               inkscape:connector-curvature="0" /></g></g><g
           id="g5309"><g
             id="g5307"><path
               id="path5305"
               d="m 66.833,34.343 c 0.367,6.056 -1.099,11.377 -5.394,15.939 -4.004,4.253 -9.763,6.883 -14.363,10.433 0.605,0.785 1.212,1.57 1.817,2.355 0.083,-0.083 0.167,-0.167 0.25,-0.25 1.369,-1.369 -0.752,-3.49 -2.121,-2.121 -0.083,0.083 -0.167,0.167 -0.25,0.25 -1.172,1.171 0.439,3.419 1.817,2.355 5.155,-3.978 12.153,-6.945 16.163,-12.223 1.904,-2.506 3.229,-5.259 4.423,-8.16 1.246,-3.025 0.851,-5.388 0.657,-8.579 -0.115,-1.921 -3.116,-1.932 -2.999,0.001 z"
               style="fill:#a67c52"
               inkscape:connector-curvature="0" /></g></g><g
           id="g5315"><g
             id="g5313"><path
               id="path5311"
               d="m 59.887,52.694 c -1.427,4.437 -6.7,6.836 -10.785,8.119 -1.84,0.577 -1.054,3.474 0.797,2.893 5.194,-1.632 11.097,-4.666 12.881,-10.215 0.593,-1.846 -2.303,-2.631 -2.893,-0.797 z"
               style="fill:#a67c52"
               inkscape:connector-curvature="0" /></g></g><g
           id="g5321"><g
             id="g5319"><path
               id="path5317"
               d="m 42.884,63.619 c -1.58,0.516 -2.115,1.839 -2.865,3.178 -0.473,0.846 0.823,1.602 1.295,0.758 0.514,-0.918 0.87,-2.131 1.968,-2.488 0.916,-0.299 0.524,-1.749 -0.398,-1.448 z"
               style="fill:#a67c52"
               inkscape:connector-curvature="0" /></g></g><g
           id="g5327"><g
             id="g5325"><path
               id="path5323"
               d="m 44.468,61.952 c -2.567,0.389 -4.347,2.859 -5.449,5.012 -0.44,0.859 0.854,1.619 1.295,0.758 0.938,-1.833 2.356,-3.99 4.552,-4.322 0.954,-0.145 0.547,-1.59 -0.398,-1.448 z"
               style="fill:#a67c52"
               inkscape:connector-curvature="0" /></g></g><g
           id="g5333"><g
             id="g5331"><path
               id="path5329"
               d="m 64.282,16.203 c -0.57,-0.142 -0.731,-0.835 -1.067,-1.262 -0.524,-0.666 -1.325,-0.979 -1.935,-1.545 -0.707,-0.657 -1.771,0.401 -1.061,1.061 0.63,0.585 1.537,0.918 1.992,1.665 0.436,0.716 0.804,1.313 1.672,1.528 0.939,0.232 1.338,-1.214 0.399,-1.447 z"
               style="fill:#a67c52"
               inkscape:connector-curvature="0" /></g></g><g
           id="g5339"><g
             id="g5337"><path
               id="path5335"
               d="m 62.73,19.048 c -0.411,-0.641 -1.144,-1.166 -1.397,-1.888 -0.307,-0.87 -0.245,-1.971 -0.302,-2.887 -0.095,-1.535 -0.544,-2.759 -1.819,-3.661 -0.617,-0.437 -1.428,0.415 -1.026,1.026 1.276,1.946 3.609,2.982 4.424,5.238 0.175,-0.307 0.35,-0.615 0.524,-0.922 -0.928,0.24 -1.29,-0.583 -1.493,-1.226 -0.291,-0.919 -1.739,-0.526 -1.447,0.398 0.49,1.549 1.636,2.715 3.339,2.274 0.373,-0.097 0.661,-0.542 0.524,-0.922 -0.903,-2.498 -3.19,-3.485 -4.576,-5.596 -0.342,0.342 -0.684,0.684 -1.026,1.026 1.384,0.979 1.101,3.064 1.244,4.561 0.153,1.596 0.934,2.085 1.737,3.337 0.52,0.81 1.819,0.058 1.294,-0.758 z"
               style="fill:#a67c52"
               inkscape:connector-curvature="0" /></g></g><g
           id="g5345"><g
             id="g5343"><path
               id="path5341"
               d="m 64.897,17.214 c -1.322,-2.708 -2.931,-5.191 -5.686,-6.603 -0.859,-0.44 -1.618,0.854 -0.758,1.295 2.536,1.3 3.936,3.581 5.148,6.064 0.426,0.87 1.719,0.11 1.296,-0.756 z"
               style="fill:#a67c52"
               inkscape:connector-curvature="0" /></g></g><g
           id="g5351"><g
             id="g5349"><path
               id="path5347"
               d="m 43.468,65.952 c -1.06,0.377 -2.081,0.692 -3.218,0.641 -0.967,-0.044 -0.963,1.456 0,1.5 1.266,0.058 2.436,-0.274 3.616,-0.693 0.905,-0.323 0.516,-1.772 -0.398,-1.448 z"
               style="fill:#a67c52"
               inkscape:connector-curvature="0" /></g></g></g><g
         id="augen"><g
           id="augeL"><path
             id="path5354"
             d="m 28.624,27.413 c -0.46,5.759 -4.447,10.112 -8.904,9.725 -4.459,-0.388 -7.701,-5.37 -7.242,-11.129 0.461,-5.759 4.447,-10.112 8.905,-9.725 4.458,0.386 7.701,5.369 7.241,11.129 z"
             inkscape:connector-curvature="0" /><g
             id="weißGroß"><path
               id="path5356"
               d="m 20.755,20.628 c 0.24,1.28 -0.88,2.694 -2.503,3.161 -1.622,0.467 -3.131,-0.192 -3.371,-1.472 -0.24,-1.279 0.88,-2.694 2.503,-3.16 1.621,-0.468 3.131,0.192 3.371,1.471 z"
               style="fill:#ffffff"
               inkscape:connector-curvature="0" /></g><g
             id="weisKlein"><path
               id="path5359"
               d="m 21.124,25.575 c -0.059,0.75 -0.745,1.305 -1.53,1.238 -0.787,-0.067 -1.376,-0.732 -1.316,-1.483 0.059,-0.75 0.744,-1.305 1.53,-1.237 0.786,0.067 1.374,0.731 1.316,1.482 z"
               style="fill:#ffffff"
               inkscape:connector-curvature="0" /></g></g><g
           id="augeR"><path
             id="path5363"
             d="m 52.118,28.338 c -0.459,5.742 -4.332,10.09 -8.648,9.715 -4.318,-0.375 -7.449,-5.334 -6.987,-11.077 0.459,-5.741 4.33,-10.089 8.647,-9.714 4.318,0.376 7.446,5.334 6.988,11.076 z"
             inkscape:connector-curvature="0" /><path
             id="path5365"
             d="m 44.756,21.628 c 0.24,1.28 -0.881,2.694 -2.504,3.161 -1.621,0.467 -3.131,-0.192 -3.371,-1.472 -0.24,-1.28 0.881,-2.694 2.504,-3.16 1.621,-0.468 3.131,0.192 3.371,1.471 z"
             style="fill:#ffffff"
             inkscape:connector-curvature="0" /><path
             id="path5367"
             d="m 45.64,26.329 c -0.051,0.648 -0.684,1.125 -1.408,1.063 -0.728,-0.062 -1.276,-0.64 -1.225,-1.289 0.051,-0.648 0.681,-1.125 1.408,-1.063 0.727,0.062 1.273,0.64 1.225,1.289 z"
             style="fill:#ffffff"
             inkscape:connector-curvature="0" /></g></g><g
         id="schoko"><g
           id="drop1"><g
             id="g5375"><g
               id="g5373"><path
                 id="path5371"
                 d="M 59.352,25.304 C 55.947,26.112 53.11,29.439 53.25,33 c 0.114,2.915 2.59,4.864 5.424,4.417 2.467,-0.388 3.995,-2.147 4.895,-4.338 0.785,-1.913 1.418,-4.148 1.042,-6.22 -0.438,-2.406 -3.267,-2.517 -4.962,-1.401 -1.782,1.173 -2.866,3.683 -3.594,5.595 -0.682,1.792 -0.769,4.581 1.813,4.64 2.74,0.063 4.376,-3.861 5.135,-5.954 0.023,-0.072 0.046,-0.143 0.069,-0.214 0.598,-1.846 -2.3,-2.63 -2.893,-0.798 -0.336,1.036 -1.216,3.529 -2.327,3.953 0.826,-0.315 0.587,1.327 0.752,0.357 0.108,-0.643 0.358,-1.273 0.626,-1.864 0.502,-1.109 1.126,-2.281 1.992,-3.15 0.08,-0.08 0.48,-0.288 0.857,-0.296 -0.559,0.012 -0.352,-0.457 -0.344,0.352 0.02,1.919 -0.831,5.005 -2.574,6.054 -1.09,0.656 -2.451,0.492 -2.844,-0.81 -0.696,-2.309 1.818,-4.646 3.831,-5.125 1.882,-0.448 1.084,-3.341 -0.796,-2.894 z"
                 style="fill:#f4ecce"
                 inkscape:connector-curvature="0" /></g></g></g><g
           id="drop2"><g
             id="g5382"><g
               id="g5380"><path
                 id="path5378"
                 d="m 31.118,53.83 c -2.181,1.151 -2.578,3.642 -2.162,5.867 0.472,2.529 2.401,4.312 4.98,4.279 2.947,-0.036 5.354,-2.381 6.389,-4.958 0.529,-1.315 0.432,-2.95 -0.265,-4.174 -0.675,-1.186 -2.101,-1.515 -3.343,-1.637 -2.251,-0.22 -4.963,0.074 -5.735,2.517 -0.698,2.208 -0.172,6.305 2.944,5.984 2.456,-0.252 4.775,-3.433 3.025,-5.59 -0.62,-0.764 -1.971,-0.851 -2.78,-0.392 -1.029,0.585 -1.407,1.637 -1.422,2.772 -0.02,1.436 1.594,1.814 2.561,1.061 0.625,-0.487 1.206,-1.215 1.963,-1.489 1.805,-0.652 1.026,-3.552 -0.798,-2.893 -1.326,0.479 -2.197,1.41 -3.287,2.261 0.854,0.354 1.707,0.707 2.561,1.061 0.006,-0.46 -0.479,0.091 -0.919,-0.26 -0.065,-0.588 -0.157,-0.708 -0.272,-0.359 -0.195,0.28 -0.43,0.524 -0.705,0.731 0.003,0.214 -0.007,0.246 -0.029,0.097 -0.091,-0.248 -0.125,-0.505 -0.103,-0.769 -0.013,-0.438 -0.003,-1.12 0.182,-1.533 0.097,-0.218 1.6,-0.2 2.046,-0.214 1.326,-0.042 1.921,0.2 1.604,1.64 -0.348,1.584 -3.213,4.319 -4.867,2.814 -1.024,-0.933 -1.464,-3.483 -0.055,-4.228 1.712,-0.901 0.196,-3.49 -1.513,-2.588 z"
                 style="fill:#f4ecce"
                 inkscape:connector-curvature="0" /></g></g></g><g
           id="drop3"><g
             id="g5389"><g
               id="g5387"><path
                 id="path5385"
                 d="m 33.132,15.545 c 3.162,-1.484 6.509,-0.963 9.136,-3.599 1.782,-1.788 2.375,-5.079 -0.619,-6.018 -2.358,-0.74 -5.075,0.678 -7.062,1.823 -1.85,1.065 -4.472,2.829 -4.908,5.1 -0.153,0.795 0.211,1.625 1.047,1.845 1.823,0.479 3.34,0.088 5.008,-0.707 1.861,-0.887 3.579,-1.734 5.54,-2.418 1.814,-0.633 1.034,-3.532 -0.797,-2.893 -1.35,0.471 -2.698,0.908 -4.012,1.476 -1.649,0.713 -2.998,2.159 -4.94,1.649 0.349,0.615 0.698,1.23 1.047,1.845 0.234,-1.216 1.788,-2.164 2.726,-2.803 1.371,-0.934 2.891,-1.684 4.511,-2.058 0.442,-0.102 1.173,-0.278 0.895,0.291 -0.382,0.782 -1.188,1.398 -1.909,1.845 -1.017,0.63 -2.553,0.696 -3.704,0.909 -1.222,0.226 -2.35,0.595 -3.472,1.122 -1.751,0.822 -0.227,3.408 1.513,2.591 z"
                 style="fill:#f4ecce"
                 inkscape:connector-curvature="0" /></g></g><g
             id="g5395"><g
               id="g5393"><path
                 id="path5391"
                 d="m 38.868,7.08 c -1.244,0.959 -2.663,1.596 -4.142,2.099 -1.821,0.619 -1.039,3.517 0.798,2.893 1.71,-0.581 3.418,-1.292 4.858,-2.401 C 41.028,9.173 41.373,8.392 40.921,7.619 40.546,6.98 39.518,6.579 38.868,7.08 Z"
                 style="fill:#f4ecce"
                 inkscape:connector-curvature="0" /></g></g><g
             id="g5401"><g
               id="g5399"><path
                 id="path5397"
                 d="m 31.314,12.939 c -0.142,0.125 -0.146,0.137 -0.014,0.037 -0.155,0.089 -0.131,0.087 0.072,-0.005 0.489,-0.096 0.888,0.07 1.195,0.498 0.186,0.261 0.033,0.045 0.004,-0.117 -0.144,-0.806 -1.112,-1.249 -1.845,-1.047 -0.842,0.231 -1.191,1.041 -1.047,1.845 0.149,0.839 0.653,1.432 1.447,1.728 0.838,0.313 1.736,-0.269 2.31,-0.816 0.592,-0.563 0.567,-1.554 0,-2.121 -0.589,-0.59 -1.53,-0.565 -2.122,-0.002 z"
                 style="fill:#f4ecce"
                 inkscape:connector-curvature="0" /></g></g></g><g
           id="drop4"><g
             id="g5408"><g
               id="g5406"><path
                 id="path5404"
                 d="m 15.5,50.75 c 3.884,-0.007 11.79,-0.396 10.696,-6.148 -0.09,-0.473 -0.576,-0.957 -1.047,-1.048 -3.471,-0.67 -11.422,0.192 -11.024,5.196 0.07,0.877 0.634,1.417 1.5,1.5 2.359,0.226 4.202,-1.12 6.399,-1.679 1.874,-0.477 1.078,-3.37 -0.798,-2.893 -1.896,0.482 -3.583,1.765 -5.601,1.571 0.5,0.5 1,1 1.5,1.5 -0.191,-2.403 5.659,-2.606 7.226,-2.304 -0.349,-0.349 -0.698,-0.698 -1.047,-1.048 0.467,2.457 -6.36,2.349 -7.804,2.352 -1.935,0.004 -1.935,3.004 0,3.001 z"
                 style="fill:#f4ecce"
                 inkscape:connector-curvature="0" /></g></g></g><g
           id="drop5"><g
             id="g5415"><g
               id="g5413"><path
                 id="path5411"
                 d="m 46.525,46.869 c 2.165,0.707 4.557,1.829 6.885,1.486 1.316,-0.194 2.053,-1.296 1.873,-2.579 -0.204,-1.452 -1.971,-2.066 -3.144,-2.505 -2.428,-0.908 -7.053,-2.124 -8.019,1.359 -0.559,2.019 1.524,3.437 3.092,4.077 2.262,0.925 4.506,1.247 6.751,0.111 1.727,-0.873 0.208,-3.461 -1.514,-2.59 -1.191,0.602 -2.377,0.324 -3.583,-0.078 -0.562,-0.188 -1.16,-0.419 -1.624,-0.797 -0.281,-0.23 -0.306,0.079 -0.065,-0.008 1.252,-0.449 3.498,0.508 4.624,0.994 0.219,0.095 0.515,0.211 0.7,0.362 -0.241,-0.352 -0.203,-0.722 0.115,-1.111 0.295,-0.373 0.331,-0.179 0.211,-0.17 -0.657,0.046 -1.329,-0.149 -1.959,-0.308 -1.207,-0.304 -2.365,-0.752 -3.547,-1.138 -1.842,-0.6 -2.627,2.297 -0.796,2.895 z"
                 style="fill:#f4ecce"
                 inkscape:connector-curvature="0" /></g></g></g></g></g><g
       id="beine_1_"><g
         id="beinL"><g
           id="g5426"><path
             id="path5420"
             d="M 32.25,73.833 C 32.167,70.5 27.333,69.583 24.917,69.5 22.25,69.417 19.667,69.417 17,69.833 c -2.333,0.334 -4.583,1.417 -5.833,3.5 -0.667,1 -1.583,2.25 -1.25,3.584 0.5,2.25 4.083,2.333 5.917,2.583 2.666,0.5 5.416,0.667 8.166,0.667 1.75,0 4,0.25 5.75,-0.25 2.167,-0.584 5.5,-4.25 2.25,-5.834"
             style="fill:#93278f"
             inkscape:connector-curvature="0" /><g
             id="g5424"><path
               id="path5422"
               d="M 33.696,73.435 C 32.592,67.042 23.25,67.782 18.591,68.131 c -4.856,0.364 -12.203,4.376 -9.647,10.29 0.764,1.767 3.672,2.199 5.262,2.387 4.73,0.557 9.374,1.061 14.154,0.859 4.507,-0.189 9.012,-5.633 4.397,-8.879 -1.586,-1.116 -3.083,1.486 -1.514,2.59 2.936,2.065 -4.437,3.354 -4.368,3.352 -1.492,0.063 -3.031,-0.064 -4.524,-0.084 -3.155,-0.041 -6.49,-0.431 -9.577,-1.134 -3.746,-0.852 1.438,-5.14 1.66,-5.289 1.996,-1.344 5.006,-1.188 7.312,-1.261 2.681,-0.087 8.422,-0.413 9.058,3.27 0.328,1.904 3.219,1.094 2.892,-0.797 z"
               inkscape:connector-curvature="0" /></g></g></g><g
         id="beinR"><g
           id="g5435"><path
             id="path5429"
             d="m 44.563,72.063 c 4,-3.375 10.719,-2.469 15.719,-2.219 3,0.125 7.672,4.266 5.422,7.641 -2,3 -10.539,2.383 -13.664,2.008 C 48.289,79.117 44,78 44,73.5 44,73.375 44,73 44,73"
             style="fill:#93278f"
             inkscape:connector-curvature="0" /><g
             id="g5433"><path
               id="path5431"
               d="m 45.507,73.42 c 3.076,-2.266 6.593,-2.395 10.283,-2.299 1.655,0.043 3.402,0.081 5.038,0.33 2.688,0.409 5.43,4.938 2.01,6.233 -4.199,1.589 -16.963,1.582 -16.963,-4.56 0,-1.935 -3,-1.935 -3,0 0,5.579 4.528,7.298 9.375,7.875 3.766,0.448 11.239,1.434 14.114,-1.918 3.152,-3.676 0.35,-8.779 -3.844,-10.217 -5.367,-1.841 -13.877,-1.462 -18.527,1.965 -1.54,1.135 -0.046,3.74 1.514,2.591 z"
               inkscape:connector-curvature="0" /></g></g></g></g></g></svg>