<?xml version="1.0" encoding="UTF-8" standalone="no"?>
<!-- Generator: Adobe Illustrator 16.0.0, SVG Export Plug-In . SVG Version: 6.00 Build 0)  -->

<svg
   xmlns:dc="http://purl.org/dc/elements/1.1/"
   xmlns:cc="http://creativecommons.org/ns#"
   xmlns:rdf="http://www.w3.org/1999/02/22-rdf-syntax-ns#"
   xmlns:svg="http://www.w3.org/2000/svg"
   xmlns="http://www.w3.org/2000/svg"
   xmlns:sodipodi="http://sodipodi.sourceforge.net/DTD/sodipodi-0.dtd"
   xmlns:inkscape="http://www.inkscape.org/namespaces/inkscape"
   version="1.1"
   x="0px"
   y="0px"
   width="70.102638"
   height="82.114944"
   viewBox="0 0 70.102638 82.114944"
   xml:space="preserve"
   id="svg164"
   sodipodi:docname="CookieA_right.svg"
   inkscape:export-filename="/home/murks/gamejam_2017/CookieA_right.svg.png"
   inkscape:export-xdpi="96"
   inkscape:export-ydpi="96"
   inkscape:version="0.92.1 r"><metadata
     id="metadata170"><rdf:RDF><cc:Work
         rdf:about=""><dc:format>image/svg+xml</dc:format><dc:type
           rdf:resource="http://purl.org/dc/dcmitype/StillImage" /></cc:Work></rdf:RDF></metadata><defs
     id="defs168" /><sodipodi:namedview
     pagecolor="#ffffff"
     bordercolor="#666666"
     borderopacity="1"
     objecttolerance="10"
     gridtolerance="10"
     guidetolerance="10"
     inkscape:pageopacity="0"
     inkscape:pageshadow="2"
     inkscape:window-width="679"
     inkscape:window-height="725"
     id="namedview166"
     showgrid="false"
     inkscape:zoom="1.1839488"
     inkscape:cx="27.027324"
     inkscape:cy="41.057472"
     inkscape:window-x="0"
     inkscape:window-y="20"
     inkscape:window-maximized="0"
     inkscape:current-layer="svg164" /><g
     id="g4737"
     transform="matrix(4.2794394,0,0,4.2794394,-114.94868,-134.64549)"
     inkscape:export-filename="/home/murks/gamejam_2017/CookieA_right_300.png"
     inkscape:export-xdpi="114.77"
     inkscape:export-ydpi="114.77"><g
       transform="translate(-4.6195659,0.05195269)"
       id="cookie"><circle
         r="33.875"
         cy="34.856998"
         cx="39.535999"
         style="fill:#c69c6d"
         id="innen_1_" /><g
         id="rand"><g
           id="g9"><path
             inkscape:connector-curvature="0"
             id="path3"
             d="m 43.536,1.525 c -2.994,-0.534 -5.509,0.688 -8.511,0.905 -3.629,0.334 -6.769,1.549 -9.913,3.264 -3.143,1.589 -6.406,2.803 -9.308,5.146 -2.775,2.219 -3.942,5.956 -5.728,9.061 -1.656,2.731 -3.556,4.835 -3.841,8.083 -0.15,2.248 -0.049,4.375 -0.073,6.5 -0.031,2.75 -0.682,4.992 0.163,7.627 1.087,3.387 1.799,6.771 3.513,10.04 3.056,6.159 9.256,10.729 15.727,13.303 5.478,2.062 10.325,4.491 16.332,3.935 6.758,-0.674 12.794,-3.857 18.582,-7.168 3.397,-1.961 4.809,-5.195 7.958,-7.41 3.275,-2.213 2.569,-6.096 3.11,-9.716 0.806,-4.991 2.612,-9.971 1.295,-15.111 C 71.166,23.34 68.73,17.687 64.413,12.513 62.563,10.242 61.452,8.979 59.094,7.452 57.109,6.18 55.127,4.533 53.012,3.634 51.272,2.739 49.146,2.841 47.149,2.568 44.53,2.038 42.163,1.262 39.535,1.607"
             style="fill:#c69c6d" /><g
             id="g7"><path
               inkscape:connector-curvature="0"
               id="path5"
               d="m 43.536,0.025 c -9.444,-0.711 -19.417,3.611 -27.224,8.58 -3.884,2.472 -5.44,6.655 -7.53,10.539 -2.385,4.43 -4.09,6.945 -4.129,12.135 -0.04,5.286 -0.254,9.504 1.24,14.611 1.332,4.551 3.163,8.546 6.208,12.201 6.012,7.219 17.266,11.615 26.317,12.799 8.494,1.109 20.416,-4.334 26.303,-10.232 C 67,58.374 71.373,55.386 72.165,52.116 73.343,47.251 74.131,41.74 74.61,36.756 75.547,27.007 70.481,17.494 64.437,10.199 58.521,3.057 48.623,-0.385 39.535,0.105 c -1.924,0.104 -1.934,3.104 0,3 17.107,-0.922 32.562,14.774 32.236,31.97 -0.072,3.821 -1.449,7.59 -1.878,11.384 -0.227,1.995 -0.127,3.693 -0.96,5.65 -0.659,1.549 -3.378,3.16 -4.563,4.439 C 58.362,63.034 49.041,67.56 40.127,67.967 32.29,68.324 22.098,63.047 16.333,58.099 12.813,55.078 10.745,51.108 9.292,46.774 7.669,41.932 7.66,37.885 7.662,32.886 7.664,27.9 8.74,24.797 11.371,20.657 c 2.522,-3.97 3.503,-7.584 7.753,-10.289 6.887,-4.383 16.152,-7.965 24.41,-7.343 1.933,0.145 1.919,-2.856 0.002,-3 z" /></g></g></g><g
         id="schatten"><g
           id="g16"><g
             id="g14"><path
               inkscape:connector-curvature="0"
               id="path12"
               d="m 13.607,16.207 c -3.13,5.548 -6.638,10.563 -7.211,17.107 -0.588,6.716 2.028,13.572 5.412,19.23 2.832,4.735 7.519,9.636 12.764,11.648 2.698,1.035 5.35,1.557 7.963,2.85 1.204,0.596 2.694,1.462 3.985,0.704 1.667,-0.978 0.158,-3.571 -1.514,-2.59 0.829,-0.2 0.51,-0.436 -0.958,-0.705 C 33.172,64.049 32.32,63.585 31.458,63.152 29.976,62.408 28.281,62.197 26.687,61.805 21.05,60.42 16.416,54.406 13.624,49.738 10.664,44.788 9.249,39.046 9.395,33.313 9.544,27.466 13.467,22.559 16.197,17.72 c 0.952,-1.687 -1.639,-3.198 -2.59,-1.513 z"
               style="fill:#a67c52" /></g></g><g
           id="g22"><g
             id="g20"><path
               inkscape:connector-curvature="0"
               id="path18"
               d="m 15.266,16.809 c -3.952,8.693 -6.948,17.065 -2.88,26.452 1.979,4.565 4.828,8.575 8.391,12.035 3.94,3.827 9.279,6.043 13.119,9.957 1.356,1.383 3.476,-0.739 2.121,-2.121 -5.71,-5.822 -13.147,-8.749 -17.969,-15.693 -2.989,-4.305 -4.447,-9.07 -4.664,-14.28 -0.228,-5.463 2.284,-10.02 4.473,-14.836 0.794,-1.747 -1.791,-3.274 -2.591,-1.514 z"
               style="fill:#a67c52" /></g></g><g
           id="g28"><g
             id="g26"><path
               inkscape:connector-curvature="0"
               id="path24"
               d="m 10.145,25.011 c -0.229,4.157 -1.262,7.709 -0.571,11.91 0.665,4.047 2.058,7.405 4.227,10.865 2.09,3.335 4.909,5.778 7.876,8.29 1.596,1.351 2.909,3.071 4.437,4.505 1.138,1.067 2.603,1.592 3.721,2.71 1.369,1.369 3.49,-0.752 2.121,-2.121 C 27.281,56.492 21.422,52.939 17.305,47.589 15.057,44.667 13.556,41.324 12.734,37.748 11.73,33.379 12.908,29.339 13.146,25.012 13.251,23.077 10.25,23.087 10.145,25.011 Z"
               style="fill:#a67c52" /></g></g><g
           id="g34"><g
             id="g32"><path
               inkscape:connector-curvature="0"
               id="path30"
               d="m 8.46,33.992 c -0.187,2.597 -0.606,4.765 0.06,7.316 0.746,2.859 2.434,5.836 3.975,8.312 3.678,5.906 11.3,9.149 16.592,13.329 1.48,1.169 3.506,-0.698 2.121,-2.121 -0.082,-0.085 -0.165,-0.169 -0.247,-0.254 -1.351,-1.389 -3.471,0.734 -2.121,2.121 0.082,0.085 0.165,0.169 0.247,0.254 0.707,-0.707 1.414,-1.414 2.121,-2.121 -4.324,-3.415 -9.127,-6.165 -13.345,-9.716 -5.195,-4.372 -6.865,-10.701 -6.403,-17.12 0.139,-1.931 -2.862,-1.918 -3,0 z"
               style="fill:#a67c52" /></g></g><g
           id="g40"><g
             id="g38"><path
               inkscape:connector-curvature="0"
               id="path36"
               d="m 15.303,53.219 c 1.721,5.566 7.608,8.66 12.777,10.347 1.845,0.603 2.628,-2.295 0.798,-2.893 -4.078,-1.331 -9.305,-3.797 -10.682,-8.251 -0.57,-1.843 -3.467,-1.057 -2.893,0.797 z"
               style="fill:#a67c52" /></g></g><g
           id="g46"><g
             id="g44"><path
               inkscape:connector-curvature="0"
               id="path42"
               d="m 34.673,64.998 c 1.089,0.37 1.435,1.596 1.936,2.516 0.462,0.85 1.758,0.092 1.295,-0.758 -0.736,-1.353 -1.256,-2.669 -2.832,-3.205 -0.919,-0.312 -1.31,1.137 -0.399,1.447 z"
               style="fill:#a67c52" /></g></g><g
           id="g52"><g
             id="g50"><path
               inkscape:connector-curvature="0"
               id="path48"
               d="m 33.107,63.313 c 2.189,0.354 3.585,2.54 4.499,4.378 0.431,0.866 1.725,0.105 1.295,-0.758 -1.077,-2.165 -2.833,-4.653 -5.396,-5.067 -0.945,-0.152 -1.351,1.293 -0.398,1.447 z"
               style="fill:#a67c52" /></g></g><g
           id="g58"><g
             id="g56"><path
               inkscape:connector-curvature="0"
               id="path54"
               d="m 14.605,17.348 c 0.781,-0.185 1.221,-0.706 1.604,-1.375 0.473,-0.826 1.407,-1.156 2.093,-1.779 0.717,-0.652 -0.347,-1.709 -1.061,-1.061 -0.576,0.523 -1.304,0.829 -1.849,1.396 -0.417,0.433 -0.556,1.225 -1.187,1.374 -0.939,0.221 -0.54,1.667 0.4,1.445 z"
               style="fill:#a67c52" /></g></g><g
           id="g64"><g
             id="g62"><path
               inkscape:connector-curvature="0"
               id="path60"
               d="m 17.025,19.525 c 0.779,-1.183 1.516,-1.63 1.744,-3.119 0.238,-1.558 -0.144,-3.725 1.329,-4.742 -0.342,-0.342 -0.684,-0.684 -1.026,-1.026 -1.41,2.096 -3.705,3.055 -4.636,5.545 -0.143,0.382 0.156,0.823 0.524,0.922 1.7,0.461 2.852,-0.708 3.358,-2.247 0.303,-0.921 -1.146,-1.313 -1.446,-0.398 -0.213,0.646 -0.588,1.449 -1.513,1.199 0.175,0.308 0.35,0.615 0.524,0.922 0.839,-2.242 3.188,-3.258 4.485,-5.187 0.413,-0.613 -0.411,-1.451 -1.026,-1.026 -1.135,0.784 -1.666,1.825 -1.808,3.198 -0.1,0.965 -0.134,1.935 -0.28,2.895 -0.146,0.954 -1.018,1.538 -1.523,2.306 -0.534,0.812 0.765,1.563 1.294,0.758 z"
               style="fill:#a67c52" /></g></g><g
           id="g70"><g
             id="g68"><path
               inkscape:connector-curvature="0"
               id="path66"
               d="m 14.879,17.667 c 1.242,-2.472 2.668,-4.731 5.219,-6.003 0.866,-0.432 0.106,-1.725 -0.757,-1.295 -2.77,1.38 -4.405,3.85 -5.757,6.541 -0.433,0.862 0.861,1.622 1.295,0.757 z"
               style="fill:#a67c52" /></g></g><g
           id="g76"><g
             id="g74"><path
               inkscape:connector-curvature="0"
               id="path72"
               d="m 34.063,67.325 c 1.177,0.433 2.341,0.773 3.608,0.731 0.965,-0.032 0.968,-1.532 0,-1.5 -1.136,0.038 -2.155,-0.291 -3.21,-0.679 -0.91,-0.333 -1.298,1.117 -0.398,1.448 z"
               style="fill:#a67c52" /></g></g></g><g
         id="augen"><g
           id="augeL"><path
             inkscape:connector-curvature="0"
             id="path79"
             d="m 49.745,27.509 c 0.396,5.764 4.334,10.162 8.794,9.824 4.464,-0.337 7.761,-5.283 7.366,-11.047 -0.396,-5.763 -4.333,-10.161 -8.795,-9.824 -4.462,0.336 -7.76,5.284 -7.365,11.047 z" /><g
             id="weißGroß"><path
               inkscape:connector-curvature="0"
               id="path81"
               d="m 57.689,20.813 c -0.255,1.277 0.85,2.704 2.468,3.188 1.616,0.485 3.134,-0.157 3.387,-1.434 0.255,-1.276 -0.85,-2.703 -2.468,-3.188 -1.615,-0.484 -3.133,0.158 -3.387,1.434 z"
               style="fill:#ffffff" /></g><g
             id="weisKlein"><path
               inkscape:connector-curvature="0"
               id="path84"
               d="m 57.265,25.756 c 0.051,0.75 0.73,1.313 1.516,1.255 0.788,-0.059 1.385,-0.716 1.333,-1.468 -0.05,-0.75 -0.729,-1.313 -1.516,-1.255 -0.786,0.059 -1.383,0.717 -1.333,1.468 z"
               style="fill:#ffffff" /></g></g><g
           id="augeR"><path
             inkscape:connector-curvature="0"
             id="path88"
             d="m 26.241,28.171 c 0.395,5.746 4.219,10.138 8.539,9.811 4.322,-0.327 7.509,-5.25 7.111,-10.998 -0.395,-5.746 -4.216,-10.138 -8.537,-9.811 -4.322,0.328 -7.505,5.25 -7.113,10.998 z" /><path
             inkscape:connector-curvature="0"
             id="path90"
             d="m 33.68,21.543 c -0.255,1.277 0.851,2.704 2.468,3.188 1.615,0.485 3.133,-0.157 3.388,-1.434 0.254,-1.277 -0.851,-2.703 -2.469,-3.188 -1.616,-0.484 -3.133,0.158 -3.387,1.434 z"
             style="fill:#ffffff" /><path
             inkscape:connector-curvature="0"
             id="path92"
             d="m 32.743,26.234 c 0.043,0.648 0.671,1.133 1.396,1.079 0.729,-0.054 1.284,-0.625 1.239,-1.275 -0.043,-0.649 -0.668,-1.133 -1.396,-1.079 -0.727,0.054 -1.281,0.625 -1.239,1.275 z"
             style="fill:#ffffff" /></g></g><g
         id="schoko"><g
           id="drop1"><g
             id="g100"><g
               id="g98"><path
                 inkscape:connector-curvature="0"
                 id="path96"
                 d="m 18.23,27.943 c 1.997,0.498 4.142,2.606 3.829,4.833 -0.202,1.434 -1.457,1.793 -2.678,1.238 -1.959,-0.891 -2.638,-4.071 -2.749,-6.003 -0.015,-0.265 0.121,-0.85 0.005,-0.716 -0.208,0.239 -0.55,0.079 -0.091,0.188 0.086,0.021 0.665,0.311 0.484,0.165 0.903,0.729 1.466,2.01 1.957,3.026 0.26,0.541 0.459,1.106 0.621,1.683 0.062,0.221 0.101,0.428 0.11,0.654 0.02,0.47 0.166,-0.546 0.71,-0.552 -0.331,0.004 -1.058,-1.412 -1.221,-1.691 -0.425,-0.73 -0.782,-1.509 -1.034,-2.317 -0.574,-1.84 -3.47,-1.054 -2.893,0.798 0.719,2.305 2.247,5.842 4.967,6.188 2.612,0.331 2.644,-2.646 2.109,-4.361 -0.598,-1.918 -1.721,-4.351 -3.323,-5.644 -1.766,-1.426 -4.365,-1.348 -5.223,0.96 -0.693,1.866 0.208,4.442 0.854,6.202 0.817,2.223 2.256,3.967 4.657,4.54 2.791,0.666 5.29,-1.136 5.683,-3.932 0.507,-3.612 -2.316,-6.936 -5.584,-8.053 -0.131,-0.033 -0.262,-0.065 -0.392,-0.098 -1.878,-0.469 -2.674,2.424 -0.798,2.892 z"
                 style="fill:#884534" /></g></g></g><g
           id="drop2"><g
             id="g107"><g
               id="g105"><path
                 inkscape:connector-curvature="0"
                 id="path103"
                 d="m 45.426,56.479 c 1.365,0.741 0.876,3.019 0.063,4.024 -1.478,1.831 -4.345,-0.865 -4.903,-2.302 -0.374,-0.961 -0.391,-1.889 0.759,-1.988 0.654,-0.057 2.446,-0.082 2.778,0.192 0.415,0.342 -0.075,2.418 0.257,2.374 -0.332,0.044 -0.897,-0.766 -0.998,-1.063 -0.01,0.527 -0.291,0.767 -0.845,0.719 -0.366,-0.051 -0.269,-0.449 -0.268,0.097 0.854,-0.354 1.707,-0.707 2.561,-1.061 -1.082,-0.864 -1.942,-1.796 -3.266,-2.29 -1.815,-0.679 -2.592,2.222 -0.797,2.893 0.75,0.28 1.327,1.027 1.942,1.519 0.973,0.776 2.563,0.358 2.561,-1.061 -0.005,-2.144 -2.052,-4.057 -4.055,-2.503 -2.37,1.84 0.578,5.018 2.459,5.662 3.181,1.091 3.779,-3.283 3.495,-5.303 -0.408,-2.894 -2.98,-3.157 -5.445,-3.187 -2.922,-0.035 -4.843,2.063 -4.229,5.011 0.606,2.913 3.156,5.407 6.147,5.753 2.741,0.317 4.547,-1.386 5.333,-3.884 0.705,-2.237 0.136,-5.015 -2.035,-6.192 -1.701,-0.923 -3.215,1.667 -1.514,2.59 z"
                 style="fill:#884534" /></g></g></g><g
           id="drop3"><g
             id="g114"><g
               id="g112"><path
                 inkscape:connector-curvature="0"
                 id="path110"
                 d="m 46.899,13.01 c -2.117,-1.022 -4.396,-1.212 -6.623,-1.881 -0.877,-0.264 -1.658,-1.024 -2.19,-1.742 -0.585,-0.791 -0.091,-0.764 0.635,-0.636 2.113,0.371 6.809,2.565 7.235,4.968 0.349,-0.615 0.698,-1.23 1.048,-1.845 -1.626,0.424 -3.003,-0.607 -4.328,-1.411 -1.397,-0.848 -3.064,-1.272 -4.588,-1.824 -1.824,-0.66 -2.602,2.24 -0.798,2.893 1.884,0.682 3.595,1.394 5.334,2.39 1.628,0.932 3.347,1.323 5.177,0.845 0.845,-0.22 1.189,-1.049 1.048,-1.845 -0.398,-2.242 -2.903,-3.896 -4.663,-5.026 -2.015,-1.292 -4.556,-2.488 -7,-2.084 -3.046,0.503 -2.733,3.956 -1.194,5.749 2.583,3.006 6.089,2.445 9.393,4.041 1.734,0.836 3.257,-1.751 1.514,-2.592 z"
                 style="fill:#884534" /></g></g><g
             id="g120"><g
               id="g118"><path
                 inkscape:connector-curvature="0"
                 id="path116"
                 d="m 37.898,9.41 c 1.546,1.22 3.284,2.034 5.136,2.686 1.829,0.645 2.608,-2.254 0.797,-2.893 -1.326,-0.468 -2.698,-1.036 -3.812,-1.915 -0.641,-0.506 -1.493,-0.628 -2.121,0 -0.527,0.527 -0.643,1.614 0,2.122 z"
                 style="fill:#884534" /></g></g><g
             id="g126"><g
               id="g124"><path
                 inkscape:connector-curvature="0"
                 id="path122"
                 d="m 45.085,15.116 c 0.486,0.475 1.181,0.974 1.905,0.879 0.997,-0.131 1.665,-0.785 1.854,-1.776 0.152,-0.803 -0.212,-1.616 -1.048,-1.845 -0.739,-0.204 -1.692,0.244 -1.845,1.047 -0.014,0.092 -0.034,0.183 -0.063,0.272 0.125,-0.419 0.466,-0.649 1.024,-0.688 0.143,-0.001 0.276,0.03 0.402,0.094 -0.311,-0.163 0.196,0.194 -0.109,-0.104 -0.585,-0.571 -1.538,-0.583 -2.121,0 -0.571,0.572 -0.584,1.55 10e-4,2.121 z"
                 style="fill:#884534" /></g></g></g><g
           id="drop4"><g
             id="g133"><g
               id="g131"><path
                 inkscape:connector-curvature="0"
                 id="path129"
                 d="m 62.622,47.993 c -1.465,-0.019 -8.253,0.014 -7.755,-2.456 -0.349,0.35 -0.698,0.699 -1.048,1.048 1.584,-0.287 7.403,-0.003 7.184,2.407 0.5,-0.5 1,-1 1.5,-1.5 -2.015,0.17 -3.695,-1.137 -5.583,-1.64 -1.871,-0.499 -2.665,2.396 -0.797,2.893 2.193,0.585 4.015,1.946 6.38,1.747 0.874,-0.073 1.421,-0.631 1.5,-1.5 0.455,-4.998 -7.516,-5.929 -10.98,-5.3 -0.476,0.086 -0.953,0.579 -1.048,1.048 -1.157,5.732 6.783,6.203 10.647,6.253 1.936,0.025 1.933,-2.975 0,-3 z"
                 style="fill:#884534" /></g></g></g><g
           id="drop5"><g
             id="g140"><g
               id="g138"><path
                 inkscape:connector-curvature="0"
                 id="path136"
                 d="m 30.845,43.866 c -1.101,0.345 -2.182,0.734 -3.298,1.031 -0.666,0.178 -1.338,0.331 -2.029,0.352 -0.298,0.009 -0.365,-0.167 0.019,0.157 0.824,0.694 -0.416,1.382 0.587,0.873 1.174,-0.595 3.223,-1.311 4.575,-1.118 0.559,0.079 0.368,0.329 0.439,-0.178 -0.063,0.444 -1.115,0.759 -1.43,0.884 -1.301,0.515 -2.713,0.857 -4.015,0.182 -1.714,-0.892 -3.231,1.697 -1.514,2.59 2.073,1.078 4.178,0.897 6.326,0.121 1.684,-0.609 3.719,-1.75 3.599,-3.825 -0.224,-3.867 -5.456,-2.671 -7.777,-1.927 -1.268,0.406 -2.851,0.952 -3.378,2.295 -0.503,1.281 0.388,2.529 1.624,2.847 2.259,0.581 4.952,-0.727 7.07,-1.391 1.839,-0.577 1.053,-3.474 -0.798,-2.893 z"
                 style="fill:#884534" /></g></g></g></g></g><g
       transform="translate(-4.6195659,0.05195269)"
       id="beine_1_"><g
         id="beinL"><g
           id="g151"><path
             inkscape:connector-curvature="0"
             id="path145"
             d="m 45.597,73.886 c 0.121,-3.331 4.964,-4.194 7.382,-4.249 2.668,-0.054 5.251,-0.024 7.912,0.422 2.33,0.359 4.567,1.469 5.794,3.564 0.655,1.008 1.558,2.268 1.21,3.598 -0.525,2.244 -4.109,2.287 -5.946,2.517 -2.672,0.47 -5.424,0.606 -8.173,0.575 -1.75,-0.02 -4.003,0.205 -5.747,-0.314 -2.16,-0.609 -5.452,-4.313 -2.185,-5.859"
             style="fill:#0071bc" /><g
             id="g149"><path
               inkscape:connector-curvature="0"
               id="path147"
               d="m 47.043,74.284 c 0.605,-3.282 5.058,-3.137 7.527,-3.167 4.61,-0.057 8.835,0.107 11.501,4.348 1.896,3.015 -8.5,3.261 -9.001,3.294 -1.557,0.102 -3.127,0.052 -4.686,0.069 -1.328,0.076 -2.647,-0.017 -3.958,-0.276 -1.562,-0.457 -2.171,-1.496 -1.826,-3.118 1.584,-1.087 0.086,-3.688 -1.514,-2.59 -4.701,3.228 -0.225,8.071 3.931,8.866 3.571,0.684 8.151,0.255 11.718,-0.283 2.764,-0.417 5.793,-0.294 7.889,-2.402 1.756,-1.766 0.402,-4.494 -0.645,-6.158 -1.894,-3.013 -4.912,-4.008 -8.278,-4.475 -4.674,-0.648 -14.373,-1.294 -15.551,5.096 -0.348,1.89 2.542,2.698 2.893,0.796 z" /></g></g></g><g
         id="beinR"><g
           id="g160"><path
             inkscape:connector-curvature="0"
             id="path154"
             d="m 33.117,72.037 c -3.962,-3.42 -10.597,-2.619 -15.599,-2.425 -3.002,0.091 -7.673,4.163 -5.461,7.563 1.966,3.022 10.348,2.492 13.477,2.152 3.754,-0.334 8.017,-1.41 7.942,-5.912 0.002,-0.125 0.003,-0.25 0.004,-0.375"
             style="fill:#0071bc" /><g
             id="g158"><path
               inkscape:connector-curvature="0"
               id="path156"
               d="M 33.874,70.742 C 29.06,67.111 21.949,67.487 16.266,68.286 c -3.977,0.559 -8.322,6.308 -5.269,9.95 3.071,3.664 9.664,3.017 13.892,2.657 5.035,-0.43 10.031,-1.998 10.092,-7.853 0.02,-1.936 -2.98,-1.934 -3,0 -0.068,6.501 -12.821,5.544 -17.029,4.348 -3.573,-1.016 -1.25,-4.32 0.669,-5.613 1.481,-0.997 3.595,-0.744 5.296,-0.824 4.017,-0.188 8.108,-0.135 11.444,2.381 1.545,1.166 3.037,-1.44 1.513,-2.59 z" /></g></g></g></g></g></svg>