<?xml version="1.0" encoding="iso-8859-1"?>
<!-- Generator: Adobe Illustrator 16.0.0, SVG Export Plug-In . SVG Version: 6.00 Build 0)  -->
<!DOCTYPE svg PUBLIC "-//W3C//DTD SVG 1.1//EN" "http://www.w3.org/Graphics/SVG/1.1/DTD/svg11.dtd">
<svg version="1.1" xmlns="http://www.w3.org/2000/svg" xmlns:xlink="http://www.w3.org/1999/xlink" x="0px" y="0px" width="80px"
	 height="80px" viewBox="0 0 80 80" style="enable-background:new 0 0 80 80;" xml:space="preserve">
<g id="cookie">
	<circle id="innen_1_" style="fill:#C69C6D;" cx="39.536" cy="34.857" r="33.875"/>
	<g id="rand">
		<g>
			<path style="fill:#C69C6D;" d="M43.536,1.525c-2.994-0.534-5.509,0.688-8.511,0.905c-3.629,0.334-6.769,1.549-9.913,3.264
				c-3.143,1.589-6.406,2.803-9.308,5.146c-2.775,2.219-3.942,5.956-5.728,9.061c-1.656,2.731-3.556,4.835-3.841,8.083
				c-0.15,2.248-0.049,4.375-0.073,6.5c-0.031,2.75-0.682,4.992,0.163,7.627c1.087,3.387,1.799,6.771,3.513,10.04
				c3.056,6.159,9.256,10.729,15.727,13.303c5.478,2.062,10.325,4.491,16.332,3.935c6.758-0.674,12.794-3.857,18.582-7.168
				c3.397-1.961,4.809-5.195,7.958-7.41c3.275-2.213,2.569-6.096,3.11-9.716c0.806-4.991,2.612-9.971,1.295-15.111
				c-1.676-6.644-4.112-12.297-8.429-17.471c-1.85-2.271-2.961-3.534-5.319-5.061c-1.985-1.272-3.967-2.919-6.082-3.818
				c-1.74-0.895-3.866-0.793-5.863-1.066c-2.619-0.53-4.986-1.306-7.614-0.961"/>
			<g>
				<path d="M43.536,0.025c-9.444-0.711-19.417,3.611-27.224,8.58c-3.884,2.472-5.44,6.655-7.53,10.539
					c-2.385,4.43-4.09,6.945-4.129,12.135c-0.04,5.286-0.254,9.504,1.24,14.611c1.332,4.551,3.163,8.546,6.208,12.201
					c6.012,7.219,17.266,11.615,26.317,12.799c8.494,1.109,20.416-4.334,26.303-10.232c2.279-2.284,6.652-5.272,7.444-8.542
					c1.178-4.865,1.966-10.376,2.445-15.36c0.937-9.749-4.129-19.262-10.173-26.557C58.521,3.057,48.623-0.385,39.535,0.105
					c-1.924,0.104-1.934,3.104,0,3c17.107-0.922,32.562,14.774,32.236,31.97c-0.072,3.821-1.449,7.59-1.878,11.384
					c-0.227,1.995-0.127,3.693-0.96,5.65c-0.659,1.549-3.378,3.16-4.563,4.439c-6.008,6.486-15.329,11.012-24.243,11.419
					c-7.837,0.357-18.029-4.92-23.794-9.868c-3.52-3.021-5.588-6.991-7.041-11.325c-1.623-4.842-1.632-8.889-1.63-13.888
					c0.002-4.986,1.078-8.089,3.709-12.229c2.522-3.97,3.503-7.584,7.753-10.289c6.887-4.383,16.152-7.965,24.41-7.343
					C45.467,3.17,45.453,0.169,43.536,0.025L43.536,0.025z"/>
			</g>
		</g>
	</g>
	<g id="schatten">
		<g>
			<g>
				<path style="fill:#A67C52;" d="M13.607,16.207c-3.13,5.548-6.638,10.563-7.211,17.107c-0.588,6.716,2.028,13.572,5.412,19.23
					c2.832,4.735,7.519,9.636,12.764,11.648c2.698,1.035,5.35,1.557,7.963,2.85c1.204,0.596,2.694,1.462,3.985,0.704
					c1.667-0.978,0.158-3.571-1.514-2.59c0.829-0.2,0.51-0.436-0.958-0.705c-0.876-0.402-1.728-0.866-2.59-1.299
					c-1.482-0.744-3.177-0.955-4.771-1.347c-5.637-1.385-10.271-7.399-13.063-12.067c-2.96-4.95-4.375-10.692-4.229-16.425
					c0.149-5.847,4.072-10.754,6.802-15.593C17.149,16.033,14.558,14.522,13.607,16.207L13.607,16.207z"/>
			</g>
		</g>
		<g>
			<g>
				<path style="fill:#A67C52;" d="M15.266,16.809c-3.952,8.693-6.948,17.065-2.88,26.452c1.979,4.565,4.828,8.575,8.391,12.035
					c3.94,3.827,9.279,6.043,13.119,9.957c1.356,1.383,3.476-0.739,2.121-2.121c-5.71-5.822-13.147-8.749-17.969-15.693
					c-2.989-4.305-4.447-9.07-4.664-14.28c-0.228-5.463,2.284-10.02,4.473-14.836C18.651,16.576,16.066,15.049,15.266,16.809
					L15.266,16.809z"/>
			</g>
		</g>
		<g>
			<g>
				<path style="fill:#A67C52;" d="M10.145,25.011c-0.229,4.157-1.262,7.709-0.571,11.91c0.665,4.047,2.058,7.405,4.227,10.865
					c2.09,3.335,4.909,5.778,7.876,8.29c1.596,1.351,2.909,3.071,4.437,4.505c1.138,1.067,2.603,1.592,3.721,2.71
					c1.369,1.369,3.49-0.752,2.121-2.121c-4.675-4.678-10.534-8.231-14.651-13.581c-2.248-2.922-3.749-6.265-4.571-9.841
					c-1.004-4.369,0.174-8.409,0.412-12.736C13.251,23.077,10.25,23.087,10.145,25.011L10.145,25.011z"/>
			</g>
		</g>
		<g>
			<g>
				<path style="fill:#A67C52;" d="M8.46,33.992c-0.187,2.597-0.606,4.765,0.06,7.316c0.746,2.859,2.434,5.836,3.975,8.312
					c3.678,5.906,11.3,9.149,16.592,13.329c1.48,1.169,3.506-0.698,2.121-2.121c-0.082-0.085-0.165-0.169-0.247-0.254
					c-1.351-1.389-3.471,0.734-2.121,2.121c0.082,0.085,0.165,0.169,0.247,0.254c0.707-0.707,1.414-1.414,2.121-2.121
					c-4.324-3.415-9.127-6.165-13.345-9.716c-5.195-4.372-6.865-10.701-6.403-17.12C11.599,32.061,8.598,32.074,8.46,33.992
					L8.46,33.992z"/>
			</g>
		</g>
		<g>
			<g>
				<path style="fill:#A67C52;" d="M15.303,53.219c1.721,5.566,7.608,8.66,12.777,10.347c1.845,0.603,2.628-2.295,0.798-2.893
					c-4.078-1.331-9.305-3.797-10.682-8.251C17.626,50.579,14.729,51.365,15.303,53.219L15.303,53.219z"/>
			</g>
		</g>
		<g>
			<g>
				<path style="fill:#A67C52;" d="M34.673,64.998c1.089,0.37,1.435,1.596,1.936,2.516c0.462,0.85,1.758,0.092,1.295-0.758
					c-0.736-1.353-1.256-2.669-2.832-3.205C34.153,63.239,33.762,64.688,34.673,64.998L34.673,64.998z"/>
			</g>
		</g>
		<g>
			<g>
				<path style="fill:#A67C52;" d="M33.107,63.313c2.189,0.354,3.585,2.54,4.499,4.378c0.431,0.866,1.725,0.105,1.295-0.758
					c-1.077-2.165-2.833-4.653-5.396-5.067C32.56,61.714,32.154,63.159,33.107,63.313L33.107,63.313z"/>
			</g>
		</g>
		<g>
			<g>
				<path style="fill:#A67C52;" d="M14.605,17.348c0.781-0.185,1.221-0.706,1.604-1.375c0.473-0.826,1.407-1.156,2.093-1.779
					c0.717-0.652-0.347-1.709-1.061-1.061c-0.576,0.523-1.304,0.829-1.849,1.396c-0.417,0.433-0.556,1.225-1.187,1.374
					C13.266,16.124,13.665,17.57,14.605,17.348L14.605,17.348z"/>
			</g>
		</g>
		<g>
			<g>
				<path style="fill:#A67C52;" d="M17.025,19.525c0.779-1.183,1.516-1.63,1.744-3.119c0.238-1.558-0.144-3.725,1.329-4.742
					c-0.342-0.342-0.684-0.684-1.026-1.026c-1.41,2.096-3.705,3.055-4.636,5.545c-0.143,0.382,0.156,0.823,0.524,0.922
					c1.7,0.461,2.852-0.708,3.358-2.247c0.303-0.921-1.146-1.313-1.446-0.398c-0.213,0.646-0.588,1.449-1.513,1.199
					c0.175,0.308,0.35,0.615,0.524,0.922c0.839-2.242,3.188-3.258,4.485-5.187c0.413-0.613-0.411-1.451-1.026-1.026
					c-1.135,0.784-1.666,1.825-1.808,3.198c-0.1,0.965-0.134,1.935-0.28,2.895c-0.146,0.954-1.018,1.538-1.523,2.306
					C15.197,19.579,16.496,20.33,17.025,19.525L17.025,19.525z"/>
			</g>
		</g>
		<g>
			<g>
				<path style="fill:#A67C52;" d="M14.879,17.667c1.242-2.472,2.668-4.731,5.219-6.003c0.866-0.432,0.106-1.725-0.757-1.295
					c-2.77,1.38-4.405,3.85-5.757,6.541C13.151,17.772,14.445,18.532,14.879,17.667L14.879,17.667z"/>
			</g>
		</g>
		<g>
			<g>
				<path style="fill:#A67C52;" d="M34.063,67.325c1.177,0.433,2.341,0.773,3.608,0.731c0.965-0.032,0.968-1.532,0-1.5
					c-1.136,0.038-2.155-0.291-3.21-0.679C33.551,65.544,33.163,66.994,34.063,67.325L34.063,67.325z"/>
			</g>
		</g>
	</g>
	<g id="augen">
		<g id="augeL">
			<path d="M49.745,27.509c0.396,5.764,4.334,10.162,8.794,9.824c4.464-0.337,7.761-5.283,7.366-11.047
				c-0.396-5.763-4.333-10.161-8.795-9.824C52.648,16.798,49.35,21.746,49.745,27.509z"/>
			<g id="wei&#xDF;Gro&#xDF;">
				<path style="fill:#FFFFFF;" d="M57.689,20.813c-0.255,1.277,0.85,2.704,2.468,3.188c1.616,0.485,3.134-0.157,3.387-1.434
					c0.255-1.276-0.85-2.703-2.468-3.188C59.461,18.895,57.943,19.537,57.689,20.813z"/>
			</g>
			<g id="weisKlein">
				<path style="fill:#FFFFFF;" d="M57.265,25.756c0.051,0.75,0.73,1.313,1.516,1.255c0.788-0.059,1.385-0.716,1.333-1.468
					c-0.05-0.75-0.729-1.313-1.516-1.255C57.812,24.347,57.215,25.005,57.265,25.756z"/>
			</g>
		</g>
		<g id="augeR">
			<path d="M26.241,28.171c0.395,5.746,4.219,10.138,8.539,9.811c4.322-0.327,7.509-5.25,7.111-10.998
				c-0.395-5.746-4.216-10.138-8.537-9.811C29.032,17.501,25.849,22.423,26.241,28.171z"/>
			<path style="fill:#FFFFFF;" d="M33.68,21.543c-0.255,1.277,0.851,2.704,2.468,3.188c1.615,0.485,3.133-0.157,3.388-1.434
				c0.254-1.277-0.851-2.703-2.469-3.188C35.451,19.625,33.934,20.267,33.68,21.543z"/>
			<path style="fill:#FFFFFF;" d="M32.743,26.234c0.043,0.648,0.671,1.133,1.396,1.079c0.729-0.054,1.284-0.625,1.239-1.275
				c-0.043-0.649-0.668-1.133-1.396-1.079C33.255,25.013,32.701,25.584,32.743,26.234z"/>
		</g>
	</g>
	<g id="schoko">
		<g id="drop1">
			<g>
				<g>
					<path style="fill:#884534;" d="M18.23,27.943c1.997,0.498,4.142,2.606,3.829,4.833c-0.202,1.434-1.457,1.793-2.678,1.238
						c-1.959-0.891-2.638-4.071-2.749-6.003c-0.015-0.265,0.121-0.85,0.005-0.716c-0.208,0.239-0.55,0.079-0.091,0.188
						c0.086,0.021,0.665,0.311,0.484,0.165c0.903,0.729,1.466,2.01,1.957,3.026c0.26,0.541,0.459,1.106,0.621,1.683
						c0.062,0.221,0.101,0.428,0.11,0.654c0.02,0.47,0.166-0.546,0.71-0.552c-0.331,0.004-1.058-1.412-1.221-1.691
						c-0.425-0.73-0.782-1.509-1.034-2.317c-0.574-1.84-3.47-1.054-2.893,0.798c0.719,2.305,2.247,5.842,4.967,6.188
						c2.612,0.331,2.644-2.646,2.109-4.361c-0.598-1.918-1.721-4.351-3.323-5.644c-1.766-1.426-4.365-1.348-5.223,0.96
						c-0.693,1.866,0.208,4.442,0.854,6.202c0.817,2.223,2.256,3.967,4.657,4.54c2.791,0.666,5.29-1.136,5.683-3.932
						c0.507-3.612-2.316-6.936-5.584-8.053c-0.131-0.033-0.262-0.065-0.392-0.098C17.15,24.582,16.354,27.475,18.23,27.943
						L18.23,27.943z"/>
				</g>
			</g>
		</g>
		<g id="drop2">
			<g>
				<g>
					<path style="fill:#884534;" d="M45.426,56.479c1.365,0.741,0.876,3.019,0.063,4.024c-1.478,1.831-4.345-0.865-4.903-2.302
						c-0.374-0.961-0.391-1.889,0.759-1.988c0.654-0.057,2.446-0.082,2.778,0.192c0.415,0.342-0.075,2.418,0.257,2.374
						c-0.332,0.044-0.897-0.766-0.998-1.063c-0.01,0.527-0.291,0.767-0.845,0.719c-0.366-0.051-0.269-0.449-0.268,0.097
						c0.854-0.354,1.707-0.707,2.561-1.061c-1.082-0.864-1.942-1.796-3.266-2.29c-1.815-0.679-2.592,2.222-0.797,2.893
						c0.75,0.28,1.327,1.027,1.942,1.519c0.973,0.776,2.563,0.358,2.561-1.061c-0.005-2.144-2.052-4.057-4.055-2.503
						c-2.37,1.84,0.578,5.018,2.459,5.662c3.181,1.091,3.779-3.283,3.495-5.303c-0.408-2.894-2.98-3.157-5.445-3.187
						c-2.922-0.035-4.843,2.063-4.229,5.011c0.606,2.913,3.156,5.407,6.147,5.753c2.741,0.317,4.547-1.386,5.333-3.884
						c0.705-2.237,0.136-5.015-2.035-6.192C45.239,52.966,43.725,55.556,45.426,56.479L45.426,56.479z"/>
				</g>
			</g>
		</g>
		<g id="drop3">
			<g>
				<g>
					<path style="fill:#884534;" d="M46.899,13.01c-2.117-1.022-4.396-1.212-6.623-1.881c-0.877-0.264-1.658-1.024-2.19-1.742
						c-0.585-0.791-0.091-0.764,0.635-0.636c2.113,0.371,6.809,2.565,7.235,4.968c0.349-0.615,0.698-1.23,1.048-1.845
						c-1.626,0.424-3.003-0.607-4.328-1.411c-1.397-0.848-3.064-1.272-4.588-1.824c-1.824-0.66-2.602,2.24-0.798,2.893
						c1.884,0.682,3.595,1.394,5.334,2.39c1.628,0.932,3.347,1.323,5.177,0.845c0.845-0.22,1.189-1.049,1.048-1.845
						c-0.398-2.242-2.903-3.896-4.663-5.026c-2.015-1.292-4.556-2.488-7-2.084c-3.046,0.503-2.733,3.956-1.194,5.749
						c2.583,3.006,6.089,2.445,9.393,4.041C47.119,16.438,48.642,13.851,46.899,13.01L46.899,13.01z"/>
				</g>
			</g>
			<g>
				<g>
					<path style="fill:#884534;" d="M37.898,9.41c1.546,1.22,3.284,2.034,5.136,2.686c1.829,0.645,2.608-2.254,0.797-2.893
						c-1.326-0.468-2.698-1.036-3.812-1.915c-0.641-0.506-1.493-0.628-2.121,0C37.371,7.815,37.255,8.902,37.898,9.41L37.898,9.41z"
						/>
				</g>
			</g>
			<g>
				<g>
					<path style="fill:#884534;" d="M45.085,15.116c0.486,0.475,1.181,0.974,1.905,0.879c0.997-0.131,1.665-0.785,1.854-1.776
						c0.152-0.803-0.212-1.616-1.048-1.845c-0.739-0.204-1.692,0.244-1.845,1.047c-0.014,0.092-0.034,0.183-0.063,0.272
						c0.125-0.419,0.466-0.649,1.024-0.688c0.143-0.001,0.276,0.03,0.402,0.094c-0.311-0.163,0.196,0.194-0.109-0.104
						c-0.585-0.571-1.538-0.583-2.121,0C44.513,13.567,44.5,14.545,45.085,15.116L45.085,15.116z"/>
				</g>
			</g>
		</g>
		<g id="drop4">
			<g>
				<g>
					<path style="fill:#884534;" d="M62.622,47.993c-1.465-0.019-8.253,0.014-7.755-2.456c-0.349,0.35-0.698,0.699-1.048,1.048
						c1.584-0.287,7.403-0.003,7.184,2.407c0.5-0.5,1-1,1.5-1.5c-2.015,0.17-3.695-1.137-5.583-1.64
						c-1.871-0.499-2.665,2.396-0.797,2.893c2.193,0.585,4.015,1.946,6.38,1.747c0.874-0.073,1.421-0.631,1.5-1.5
						c0.455-4.998-7.516-5.929-10.98-5.3c-0.476,0.086-0.953,0.579-1.048,1.048c-1.157,5.732,6.783,6.203,10.647,6.253
						C64.558,51.018,64.555,48.018,62.622,47.993L62.622,47.993z"/>
				</g>
			</g>
		</g>
		<g id="drop5">
			<g>
				<g>
					<path style="fill:#884534;" d="M30.845,43.866c-1.101,0.345-2.182,0.734-3.298,1.031c-0.666,0.178-1.338,0.331-2.029,0.352
						c-0.298,0.009-0.365-0.167,0.019,0.157c0.824,0.694-0.416,1.382,0.587,0.873c1.174-0.595,3.223-1.311,4.575-1.118
						c0.559,0.079,0.368,0.329,0.439-0.178c-0.063,0.444-1.115,0.759-1.43,0.884c-1.301,0.515-2.713,0.857-4.015,0.182
						c-1.714-0.892-3.231,1.697-1.514,2.59c2.073,1.078,4.178,0.897,6.326,0.121c1.684-0.609,3.719-1.75,3.599-3.825
						c-0.224-3.867-5.456-2.671-7.777-1.927c-1.268,0.406-2.851,0.952-3.378,2.295c-0.503,1.281,0.388,2.529,1.624,2.847
						c2.259,0.581,4.952-0.727,7.07-1.391C33.482,46.182,32.696,43.285,30.845,43.866L30.845,43.866z"/>
				</g>
			</g>
		</g>
	</g>
</g>
<g id="beine_1_">
	<g id="beinL">
		<g>
			<path style="fill:#0071BC;" d="M45.597,73.886c0.121-3.331,4.964-4.194,7.382-4.249c2.668-0.054,5.251-0.024,7.912,0.422
				c2.33,0.359,4.567,1.469,5.794,3.564c0.655,1.008,1.558,2.268,1.21,3.598c-0.525,2.244-4.109,2.287-5.946,2.517
				c-2.672,0.47-5.424,0.606-8.173,0.575c-1.75-0.02-4.003,0.205-5.747-0.314c-2.16-0.609-5.452-4.313-2.185-5.859"/>
			<g>
				<path d="M47.043,74.284c0.605-3.282,5.058-3.137,7.527-3.167c4.61-0.057,8.835,0.107,11.501,4.348
					c1.896,3.015-8.5,3.261-9.001,3.294c-1.557,0.102-3.127,0.052-4.686,0.069c-1.328,0.076-2.647-0.017-3.958-0.276
					c-1.562-0.457-2.171-1.496-1.826-3.118c1.584-1.087,0.086-3.688-1.514-2.59c-4.701,3.228-0.225,8.071,3.931,8.866
					c3.571,0.684,8.151,0.255,11.718-0.283c2.764-0.417,5.793-0.294,7.889-2.402c1.756-1.766,0.402-4.494-0.645-6.158
					c-1.894-3.013-4.912-4.008-8.278-4.475c-4.674-0.648-14.373-1.294-15.551,5.096C43.802,75.378,46.692,76.186,47.043,74.284
					L47.043,74.284z"/>
			</g>
		</g>
	</g>
	<g id="beinR">
		<g>
			<path style="fill:#0071BC;" d="M33.117,72.037c-3.962-3.42-10.597-2.619-15.599-2.425c-3.002,0.091-7.673,4.163-5.461,7.563
				c1.966,3.022,10.348,2.492,13.477,2.152c3.754-0.334,8.017-1.41,7.942-5.912c0.002-0.125,0.003-0.25,0.004-0.375"/>
			<g>
				<path d="M33.874,70.742c-4.814-3.631-11.925-3.255-17.608-2.456c-3.977,0.559-8.322,6.308-5.269,9.95
					c3.071,3.664,9.664,3.017,13.892,2.657c5.035-0.43,10.031-1.998,10.092-7.853c0.02-1.936-2.98-1.934-3,0
					c-0.068,6.501-12.821,5.544-17.029,4.348c-3.573-1.016-1.25-4.32,0.669-5.613c1.481-0.997,3.595-0.744,5.296-0.824
					c4.017-0.188,8.108-0.135,11.444,2.381C33.906,74.498,35.398,71.892,33.874,70.742L33.874,70.742z"/>
			</g>
		</g>
	</g>
</g>
</svg>
